/* XPM */
static char * clay_xpm[] = {
"64 64 182 2",
"  	g #959595",
". 	g #BBBBBB",
"+ 	g #ADADAD",
"@ 	g #8D8D8D",
"# 	g #989898",
"$ 	g #929292",
"% 	g #ACACAC",
"& 	g #C5C5C5",
"* 	g #C8C8C8",
"= 	g #C4C4C4",
"- 	g #A8A8A8",
"; 	g #8C8C8C",
"> 	g #A0A0A0",
", 	g #9E9E9E",
"' 	g #666666",
") 	g #858585",
"! 	g #767676",
"~ 	g #878787",
"{ 	g #A1A1A1",
"] 	g #616161",
"^ 	g #7F7F7F",
"/ 	g #B0B0B0",
"( 	g #A5A5A5",
"_ 	g #7C7C7C",
": 	g #979797",
"< 	g #9C9C9C",
"[ 	g #828282",
"} 	g #686868",
"| 	g #8F8F8F",
"1 	g #969696",
"2 	g #B8B8B8",
"3 	g #BDBDBD",
"4 	g #BFBFBF",
"5 	g #B5B5B5",
"6 	g #BCBCBC",
"7 	g #8E8E8E",
"8 	g #A7A7A7",
"9 	g #C9C9C9",
"0 	g #AAAAAA",
"a 	g #919191",
"b 	g #B4B4B4",
"c 	g #A9A9A9",
"d 	g #AEAEAE",
"e 	g #A2A2A2",
"f 	g #A6A6A6",
"g 	g #909090",
"h 	g #7B7B7B",
"i 	g #898989",
"j 	g #797979",
"k 	g #5E5E5E",
"l 	g #9D9D9D",
"m 	g #656565",
"n 	g #737373",
"o 	g #6E6E6E",
"p 	g #5D5D5D",
"q 	g #9F9F9F",
"r 	g #777777",
"s 	g #757575",
"t 	g #717171",
"u 	g #868686",
"v 	g #838383",
"w 	g #6C6C6C",
"x 	g #6B6B6B",
"y 	g #BEBEBE",
"z 	g #C6C6C6",
"A 	g #CECECE",
"B 	g #C2C2C2",
"C 	g #B3B3B3",
"D 	g #AFAFAF",
"E 	g #C1C1C1",
"F 	g #B6B6B6",
"G 	g #888888",
"H 	g #787878",
"I 	g #999999",
"J 	g #B2B2B2",
"K 	g #8B8B8B",
"L 	g #848484",
"M 	g #949494",
"N 	g #9B9B9B",
"O 	g #4E4E4E",
"P 	g #939393",
"Q 	g #A3A3A3",
"R 	g #808080",
"S 	g #9A9A9A",
"T 	g #7D7D7D",
"U 	g #818181",
"V 	g #7E7E7E",
"W 	g #B1B1B1",
"X 	g #BABABA",
"Y 	g #A4A4A4",
"Z 	g #5A5A5A",
"` 	g #B7B7B7",
" .	g #8A8A8A",
"..	g #4C4C4C",
"+.	g #555555",
"@.	g #7A7A7A",
"#.	g #5B5B5B",
"$.	g #5F5F5F",
"%.	g #B9B9B9",
"&.	g #747474",
"*.	g #404040",
"=.	g #373737",
"-.	g #464646",
";.	g #636363",
">.	g #ABABAB",
",.	g #727272",
"'.	g #535353",
").	g #646464",
"!.	g #606060",
"~.	g #C0C0C0",
"{.	g #6F6F6F",
"].	g #CFCFCF",
"^.	g #6A6A6A",
"/.	g #696969",
"(.	g #707070",
"_.	g #4D4D4D",
":.	g #525252",
"<.	g #5C5C5C",
"[.	g #CCCCCC",
"}.	g #CACACA",
"|.	g #C3C3C3",
"1.	g #676767",
"2.	g #4A4A4A",
"3.	g #515151",
"4.	g #393939",
"5.	g #323232",
"6.	g #505050",
"7.	g #4B4B4B",
"8.	g #595959",
"9.	g #545454",
"0.	g #6D6D6D",
"a.	g #454545",
"b.	g #565656",
"c.	g #575757",
"d.	g #424242",
"e.	g #D2D2D2",
"f.	g #626262",
"g.	g #2E2E2E",
"h.	g #474747",
"i.	g #585858",
"j.	g #C7C7C7",
"k.	g #383838",
"l.	g #434343",
"m.	g #232323",
"n.	g #272727",
"o.	g #494949",
"p.	g #343434",
"q.	g #CBCBCB",
"r.	g #484848",
"s.	g #3C3C3C",
"t.	g #4F4F4F",
"u.	g #3D3D3D",
"v.	g #3F3F3F",
"w.	g #353535",
"x.	g #2A2A2A",
"y.	g #1F1F1F",
"z.	g #1C1C1C",
"A.	g #252525",
"B.	g #3E3E3E",
"C.	g #242424",
"D.	g #313131",
"E.	g #444444",
"F.	g #3A3A3A",
"G.	g #262626",
"H.	g #181818",
"I.	g #414141",
"J.	g #3B3B3B",
"K.	g #2D2D2D",
"L.	g #292929",
"M.	g #D3D3D3",
"N.	g #DEDEDE",
"O.	g #CDCDCD",
"P.	g #EBEBEB",
"Q.	g #D9D9D9",
"R.	g #DBDBDB",
"S.	g #2B2B2B",
"T.	g #D0D0D0",
"U.	g #D1D1D1",
"V.	g #D5D5D5",
"W.	g #D6D6D6",
"X.	g #DDDDDD",
"Y.	g #363636",
"  . + @ # $ % & * = - ; > , ' ; ) ) # ! ~ { ] ^ / ( _ : < [ } |   1 2 3 4 5 / {   ( 6 7 8 9 0 a $ b c d e f b ( , g h i j k [ | ",
"1 0 / l m n o % % 6 6 | p n ! q - < a c r $ s t < u v [ ! l w x [ : ( y z A B < $ $ C D c E F G H 7 1 I $ d J D 8 e ! K 8 L _ M ",
": ( c N } O K P i # e + { - # ) ^ i Q c { u _ ^ R e S + T > <   S | , Q l # U M Q 5 q ( 9 6 / + V ! q   R q . , I W X r 7 N # e ",
") _ # q Y v ; d 5 e > q > X { P ~ Z H < { 1 ] ) N ` J a U u ; < d >  .  ; | C 2 5 ( 8 = 4 F + / 5   e % ; ^ E : 7 > 3 Y M K N d ",
"G ) P ) # K  .e : $ - C u ( e     1 i } ^ P ..+.H ) 8 _ @.S q [ $ $ #.$.s S %.W S { N 8 J F 5 ` + 8 M / C i M / N [ u r : 1 U | ",
", f I q ( % { f 0 ( { X $ V $ , : &.' G @ ) x *.=.-.O *.;.h 1 l l ( #    .i ( . + C e < Q 5 5 d ( J d { 8 %.>.Y >.M o ,.P I D e ",
"U u I { ; u g Y / > % 4 % l b 1 | M G S ;   Y ) $.'.} &.).7 < , , g a < ( , N Y > D + 1 G F + + Y >./ P u G D - > f I m v M : g ",
"P #   @ ; !.R 5 ~.Q | q v #.7 l ; b / ; q q 7 g 7 g , ( _ $.T L S u v   i , d 8 ) ~ : 8 %.Y y E 3 - ` , M ' h 7 W ( Q [ ] {.@.Q ",
"P i g i + D > 5 3 , U G T m ! 8   ^ q , e c Y W 2 d D X + [ H ,.I f N q @ g n n &.U  .u < >.J & W ( c S R 7 i T ' L / b S | $ q ",
"..} ~ @ - B F 4 3 >.i ] h 1 $ q J ( v ; @ c c q d d z ].5 + 8 >.1 ^./.u U (.@ u @.&.q i Q l Q >.2 B 2 n _.i , u :.i . f c W < ).",
"] ' L q X - J X d d 5 , @ g l { e < l x > % Y < @.j f 9 W > % $ o <.p h v o h [ {.,.$   U D # Y F 3 b < P r S [.h 7 E F e g U j ",
"_ @ > D + 8 - d b C d + 1 + c l S G ) l V L /.&.J G I }.|.c P i | 1.2.n K , a ,.#.(.[ < !.~ Q > > 8 W / D - r >.> c 2 C Q 0 |   ",
"> ~.b y J 0 > / %.J + 8 ( < B X I {.3./.4.5.6.7.x @.v f %.e X Y # G @._.8.7 N @.v 9.G 2 Q 0.a l { f b 0 W 6 Q @.% ( I ( M d c I ",
"S C D ( , T H c F + 8 I q  .o !.j ~ a.b.t w ! ' c.^.d.n h S 1 b 5 K ) ) /.[ ( d S @ m $ C < v @ d 5 - / 0 %.e.~.F ` I @ / : B C ",
"0   < % 5 - o _ F C 2 : _ 1.p 2.8.@.U _ ).! T ' ^.e U *.' e { , 5 + a a 1 &.d / %  .f e 0 < ^.^ @ ( i # c + 5 A % V x ] ! L | c ",
"C b c . 0 ~.. Y / E & S v 7 ^ <.) 0.+.G s @ | r I / -  .w :.^.@.M F ^ c.u f.w i @ w r @.s r _ ).n : _ p g % 8 >.f _ ~ a ! &.u >.",
"8 c ; > i ( A + Y C D /   ~ M !.g.d.!.L o _ J v (.> 8 % 5 6 u t ~ I ; h.' ,.O Z Z i.) i H T 0.) | l v ] L 1 v # < S f j.` ' b.j ",
"c + { c 3 ~.& X l N / J : u W b h 0.v  . .[ c I u K * = d D h k.-.f.@ _ T n p -.l.a.m x k O m.n.o.g $ j { E d 5 2 < 1 u @ t p.0.",
"8 g 8 Y C q.5 > f e ( c M # 7 h I c |  .v T 1 Q 3 2 Y < n ! N $.r.c 3 J   w ^ P L #.T @ c.7.<.!.s.<.: ^.R % | / %.M G V I Y ..t.",
"{.P   G e E 5 | u { N Q g ) ) h 7   G u S N T L s $ &.7 J d D 7.g...t o T 3.V d # 3.] ] h.u.v.{.u i.i.8.O v s r 0 c N 2 d p m.h.",
"o P b u j K M l  .@ l 0 P K M ( $   l v U , i ; &.@.T @. .i b.w.5.g.x.y.z.A.B.1.p :.3.:.@.(.7.w.O 9.#.C.D.E.f.] i.! x /.6.7.8.t.",
"f.G Q y # >.N W K j M 8 < N a { g ; d l ! 0.| s ;.H 9.' t +.*.} } v.F.k.g.=.G.H.'.7 H : K H &.:.I.O B.k.a.l.4.J.g.F.U (.6.B.f.f.",
"&.1 e 3 b b 0 P ~ p w g ) &.I - Y U r i a T ) a r o x R ^ f.:.r.!.:.'.<.] c.] ..K.o V [ <  .u h 9.,.p m.C.L.u.<.d.Z t n t ,.Z ' ",
"v 7 L  ., % + 1 i 7 1 2 f (.i., %.M R x ^ [ M @ @ (.H T ,.[ ;  .{.s T ! ) i G ~ 1.!.).b.H # a @ o f.9.t.+.4.g.t.$.m <.[ g I a h ",
"M c # G 0 e $ >.Q J ( Q % 0.d.8.g + [ | N V j R ; i s m r | 1 P P g | K [ ; M ; P 7 P i c.n 0 g V ^ ) ~ ! V ;.] m } [ { 5 |.q a ",
"Q ; e ; +.1.s q z K e . < G [ ; ) } _.$ Y q u | 7 $ U } ) Q / / C - :  .; K l G ~ &.~ J i ] ,.  S g $ :  .@.H U 7 K q M.[.M.9 ( ",
"g l 7.'.1.t V x s 3._ % 5 I k p 9.c.p.).: , D W d c >.W 1 M J q ~ < l $ : M ( ( ) ,.,.8 < : G c /   l W Y v  .) { q N l A e.3 ( ",
"~.g h._ 8 /.$ : x ! L.o i ).Z t _ L w 7 >.l   v _ @./ b e G > 6 Y e c I c J W < 7 R ,.r L 0 L u >.C + J q Y M G T e f >.0 2 4 4 ",
"B S 6 [ u._ *.o 1.9.#.r u h.p N   > : P f + S p 1.~ , W 6 I , - %.I + $ {   I l a x ;.U # , / I $ 0 b C b f [ Q @ a |.b * N.& ~.",
"X ~ N ;.3.t.:.' $ { + c ^ o.c.;.x o < M %., I >.U 0.&.f % J D / Q # Y M l # # s [ ( - ^ q b J e ; @ 3 . + c g 1 @ _ 8 M { [.9 Y ",
"}.2 R *.G g # ( X J - d :.Z u ^ ! l...1.~ M 8 > M _ l W D F < _ 5 v : f : M K a @.f.,.V 1 , : e e Y |.z C j.e I : | | # b b ( D ",
"|.6 J +.o.i P i ( e _ s m [  .; K T m $.0.K G { Q | , F F / M ^.7 > [ K , S M ^ P v o o.! ( # : @ i 3 ].|.= f i | | : @ # B %.O.",
"[.|.` #._./.$ [ { c &.[ M Y < v u K @ M g e / / l # R   # >.j.{ ^.: I v i 1 $ 0.r f   g ] i ( 1 d l z q.6 4 E 1 (.l ' B.7 |.P.].",
"2 B $ D.=.Z c 9 z , @.l f %.0 D Y u n m { ( % b N v S I S W . j.q S I I : @ I ~ v ) 1 c @ >.~.0 , 4 Q.y ~.z |.5  .P r  .: C M.6 ",
"3 %.( 3.u.f.@.3 = > H U   N { P f % _ w.B._ S N 0 5 d %.J Q ` 4 E . D e J Q b 0 { > 5 F | e X :   M.A }.|.R.B 5 / >.9 Q.U 1 f { ",
"3 8 O.u G.G.S.$.{ 2 e $ o H I ; f.o ] i.g.B.c.K F 3 ` 8 B a D d S Q F 0 ; Q + W W - W l 0 D 4 @ q T.q.B = O.C C 1 l z T.W - / U ",
"M ~ q J ] S.p.=.s 5 c 0.:.L > , U !.m v r h r ).l c >.l 5 F < N i u D & @ K + q 0 l z 6 I c D   0 [.= 0 [ 5 / < H Q E 6 C [ a { ",
". C ( D Q r.w.L X 4 %.| 1.L V  .% < I r @ I P i   D / W + / 0 $ Q F h ` 5 !  .Q I 1 / 2 N q + c 8 z U.[.v M N $ ; y 2 _ c.T @ C ",
"& & z 8 G ).@.K f 3 / I $ ; c h , ( I Y ,.w $ P S J e ( X ` b 5 l + l S >.> _ 7 I K q X / |.( < 8 X = ~.C ) . Y 0 / { # !.;.R 7 ",
">.c V.O.*.f.{ % b { - N G 7 X d : { b 7 : H ~ ~ G S 2 - 7 e g 7 : Y - + Q y c M 7 d 0 0 - X & f > 8 J 7 - | h / % 3 >.z h !.a v ",
"o h + : t.J.'.= ` N % C Y D 3 D >.  D [ i ! -.+.^.s U G | P - J c 5 { { 0 ( ].5 R 1 < @ K 8 ( D 5 5 7 > u V 0.2 3 3 . %.i P 4 + ",
"t /.$ { ..h.7 ; F 6 E W.% } D ` J S e >.u r P {.H @ ~ (.@ C ~.6 N J W | L ,.# 8 L d / i /.; ` # ;.S < U 0 : p P d ( D . C Y W B ",
"M ).  6 1 d.{ D ; e c C %.^.i.Q 2 @ > c - @ V L _ [   I ~ X c J ( >.d e Q e $ : a 8 l 7.d.] x i c.- X.6 X Y !.8.  : [ - * > ! 8 ",
": ^ P  .+ < 1 % D 0 [ N W F /.: , I + Q l , ( Y c a N G  .>.e D D - d / l Q f 2 - V # g n ~ @ Q i L 5 ` 0 y W M : ) ^ { e K 2 A ",
"Y / D Y M a H K < 7 u $ % J 4 >.b d q f 6 D D f # q e + { / >.- W 5 8 D Y - I Q W Y ( @ 6 Q Q . Y +.} I ).r +   T q ~ c ! t ) 0 ",
"f f >.c K R 1 <.L  .g @ | N c , / 5 f D P i { { 8 l e ~.- f b c > Q I ( e { / J %.- I 3 { S 1 h j r G M , !.} ^ 2.Y.i.(.$ + S E ",
"|.| > 2 >.  I ; P r /.  j T | >.1 > W %.h < d D c 8 e c d Q d `  .- W H , J Q b % ( d Q , > > ^ &.1 W l q _ #.u s ;.x a d W a q ",
"b / W f ; L (.M , } k e $ u 5 1 | # 5 ( { , < / 0 6 Y < . S l f f : q S i.~ ` { l Y e c Q | ( $ N . 4 z d l H t ,.<.$. .q 2 C e ",
"F X B , E.5.p ; &.^.H R @.V ,  .)   q > # # >   ( % 8 q d 0 0 . X W - j.8   S P %.b   , a - > &.T I e ~./ # 0.@., ,.{.b.| - 2 4 ",
"9 2 ( _ 7 ; @.@.@.s ,.v ) , ; l S g Y Y _ g Q :   , < % %.y ` F %.E . / I ~.}.,.L >.{ l q ~ v @ _ M { d b f N > 8 u 7 '.t.I ` . ",
". b 6 / $ v 1 l # { e   g [ 7 7 > I <  .7 {.N # N > q < f ~.B j.y |.X 6 U 1 P ~ | J W N e N @.K @ P , >.8 W Q G ~ s i l h | ~.` ",
"D / ~.J K n # >.: e ( | {.! ^ @ P g , @ q [ t # @ : g #   4 ` c 0 - 2 B J u I / 2 %.d e 7 Q N ' } i u ; l + J S V 0.K K < q , I ",
"g ( c K > + + / 5 + ` a 8.{._ | P l < T 1 M &.7  .|   g ) [ q , M > 8 >.- Y M.%., e F ` { ; : L _.] P >.) ~ q < [ Z s ~ H M | $ ",
"U W # 1 - t ~ S C $ s l N U /.u   , > P ) P !.s ,.(.  &.&.T ] ! [ ^ { C . = 5 }.- M d X , R { >.v s.9.n ! 9.[ S I _ ,.| s 2.!.! ",
"@.G  .0.T 6.) 1 # S i 8 %.%.J + ( g # > q q r _ a _ h R , K <.'.1.j   3 / b D W X | ~ Q 3 f R - > T o.:.;._.u   U N  .u R 0.m n ",
"# < o 5.:.d.(.$ 8 # T 0 j.2 %.e S C % H Y | u [ ;   v a h v i ) ; @ t a 5 4 |.0 6 {   W ` J i ' m @.(.R o v.+._ <.K T T v 1 / J ",
"l ( } I.} @ 0 N | i (.g + > i R K P - K U N u M (.; G a   | i d 5 J ( , X 2 D a >.8 T q ~.|.B V !.7.-.8.t o.v.r.F.<.@ 1 S I @ # ",
"# M S v : % , > T  .1 ; > d i @ a _ v : S q K e c {   7 l 5 b 7 t ; S 7 * C ( d - (  .~ F |.[.9 0 ! m <.' /.6.Y.=.4.] 5 [.%.g v ",
"F X N 8 8 S P S , s ,.G ^ | 1 U S ; 8  .I % i # - ~ u 1 Q 4 ` f f { %.K 2 }.X b ~.d 7 >.c 1 { C 5 X % N ( v p 0.m x ] 1 N : 0 B ",
"8 ( a % c # @ :   # +.9.V h.! : K G c Y @.> < u g r ^ 7 ) K h 8 2 W b ( % [.z 4 0 K  .@ >.: # : d - 8 >   I ] h L  .1 ,.' ; b , ",
"% a 0.t ; e b ~ 7 q $ f.~ v k.^ Y U ( 5 K x a   L $ ^ i {.$.@ - # l - ^ T < J 8 1 I c @ S 2 - , % - - l h ^ L p t c.&.i V P , I ",
"# ( : I d S { >.a e c g 0 l U L 5 - N d 2 !.D.L   D 0 f > t.| e %   q L (.|   q % % , ; S { g q d ~.F @ ' U N j t.d.2.@ L > %.>.",
"C b d F (   - X : ! v ^ 8 >.c , &.~ c Y ( I 4.s I &.r $ g U M . f c J W C F J y W 5 . < 8 X 0 , 5 C - 1 D >.1 I R w I U s 1 S Y ",
"% { q Q # N b F . 7 '.s 1 W l n s t r R N Y <.h G 1 # l ( ) 0.~ : c / e f ` W %.% - >.K d B J , ` 5 6 ` q >./ N N } $ Y T x @ S "};
