/* XPM */
static char * cobble2_xpm[] = {
"64 64 153 2",
"  	c #515151",
". 	c #353535",
"+ 	c #1F1F1F",
"@ 	c #2C2C2C",
"# 	c #3F3F3F",
"$ 	c #434343",
"% 	c #555555",
"& 	c #404040",
"* 	c #454545",
"= 	c #464646",
"- 	c #5B5B5B",
"; 	c #525252",
"> 	c #6A6A6A",
", 	c #6D6D6D",
"' 	c #767676",
") 	c #737373",
"! 	c #777777",
"~ 	c #8F8F8F",
"{ 	c #8C8C8C",
"] 	c #939393",
"^ 	c #818181",
"/ 	c #757575",
"( 	c #707070",
"_ 	c #7B7B7B",
": 	c #7A7A7A",
"< 	c #7E7E7E",
"[ 	c #585858",
"} 	c #616161",
"| 	c #6E6E6E",
"1 	c #7D7D7D",
"2 	c #6B6B6B",
"3 	c #656565",
"4 	c #5F5F5F",
"5 	c #747474",
"6 	c #717171",
"7 	c #505050",
"8 	c #787878",
"9 	c #797979",
"0 	c #696969",
"a 	c #686868",
"b 	c #676767",
"c 	c #6C6C6C",
"d 	c #373737",
"e 	c #575757",
"f 	c #646464",
"g 	c #2E2E2E",
"h 	c #545454",
"i 	c #5A5A5A",
"j 	c #4F4F4F",
"k 	c #3C3C3C",
"l 	c #4C4C4C",
"m 	c #424242",
"n 	c #3A3A3A",
"o 	c #363636",
"p 	c #848484",
"q 	c #606060",
"r 	c #8A8A8A",
"s 	c #808080",
"t 	c #484848",
"u 	c #7C7C7C",
"v 	c #4D4D4D",
"w 	c #626262",
"x 	c #666666",
"y 	c #494949",
"z 	c #6F6F6F",
"A 	c #3E3E3E",
"B 	c #636363",
"C 	c #5E5E5E",
"D 	c #8E8E8E",
"E 	c #5C5C5C",
"F 	c #565656",
"G 	c #535353",
"H 	c #4B4B4B",
"I 	c #383838",
"J 	c #262626",
"K 	c #595959",
"L 	c #838383",
"M 	c #5D5D5D",
"N 	c #474747",
"O 	c #3B3B3B",
"P 	c #727272",
"Q 	c #444444",
"R 	c #1E1E1E",
"S 	c #3D3D3D",
"T 	c #303030",
"U 	c #272727",
"V 	c #2F2F2F",
"W 	c #323232",
"X 	c #414141",
"Y 	c #111111",
"Z 	c #4E4E4E",
"` 	c #2D2D2D",
" .	c #4A4A4A",
"..	c #313131",
"+.	c #333333",
"@.	c #292929",
"#.	c #202020",
"$.	c #1C1C1C",
"%.	c #212121",
"&.	c #191919",
"*.	c #151515",
"=.	c #1D1D1D",
"-.	c #141414",
";.	c #0F0F0F",
">.	c #0A0A0A",
",.	c #070707",
"'.	c #101010",
").	c #252525",
"!.	c #232323",
"~.	c #393939",
"{.	c #161616",
"].	c #242424",
"^.	c #2B2B2B",
"/.	c #1A1A1A",
"(.	c #0E0E0E",
"_.	c #131313",
":.	c #282828",
"<.	c #121212",
"[.	c #7F7F7F",
"}.	c #181818",
"|.	c #878787",
"1.	c #929292",
"2.	c #0B0B0B",
"3.	c #1B1B1B",
"4.	c #343434",
"5.	c #0C0C0C",
"6.	c #222222",
"7.	c #171717",
"8.	c #2A2A2A",
"9.	c #828282",
"0.	c #080808",
"a.	c #8D8D8D",
"b.	c #868686",
"c.	c #898989",
"d.	c #888888",
"e.	c #858585",
"f.	c #0D0D0D",
"g.	c #949494",
"h.	c #909090",
"i.	c #040404",
"j.	c #AAAAAA",
"k.	c #B2B2B2",
"l.	c #ABABAB",
"m.	c #959595",
"n.	c #000000",
"o.	c #010101",
"p.	c #8B8B8B",
"q.	c #090909",
"r.	c #9F9F9F",
"s.	c #919191",
"t.	c #030303",
"u.	c #9C9C9C",
"v.	c #050505",
"    . + @ # $ $ % # & * = - ; > , ' ) > , ! ~ { ] ^ / ( / ( _ : < ] [ } > _ | : 1 2 < / 3 4 5 6 % 7 / 8 9 0 a b 4 c c 0 - d [ e ",
"f g #   h - i j k l m * d n o $ p 6 - ) e i ^ / q r s 3 t u p ' ) 5 f v w x - ; y w 2 ) a z } ! < A % 3 } } B , B q C } B * | D ",
"+ y   E = F G ; ; v H n I o * J 6 ) q i u , K 4 ) L s 3 G [ c M c c N O B a E 5 P E b / ) 1 8 } } @   M B 2 q - 4 4 H Q $ R . P ",
"n S . N = $ I T U V n W X . Y W e X P 7 4 E = Z K > % X * M 6 1 ' a E W ` K P q z 1 : 2 < 5 e [ H A .  .7 = k ..o . T @ T +.q d ",
"@.#.$.#.%.J &.*.&.=.-.;.>.,.=.V K G j O k @ d Q N , s f [ -   m # G M . $.*.'.).d [   E e Z F  .y = ..!.g ` ~.# Q   t S Q - C E ",
"[ {.R =.+.A 7 M q i w a B : ) @.& Z @ W +.` + #.J ].y @ o @ ..^.t = g d v K 0 a y O /.Y (.-._.%.#.@ ( b w c i - q K h E - j % w ",
"h > x ! t X h e ; E ; F F E w E ` !.U :.].{.{.<.J A 0 [.Z v m S R }.& % C f 7 G 4 N - ; K F b } |.X k l % Z q l e q i C C C B E ",
"[ +., E i & j x C q i 2 a c 6 7 h x 3 S $ & k j  .H C 4 c c 1.1.~ a d I Q . N F e M j G 4 0 Q 3 ; 2.o j = N S  .  i B K C q - C ",
"V 3.4.> 3 q A E _ b [ 2 q | a t P ( s P : : u u _ P v N l ; C > 0 G v @.( w F - % & E G i , 0 0 5 I o S X * * o A = w C F G F X ",
"=.E ].5.@.6.4.U ).+.T ).#.#.J [ 0 2 < ^ |.p < , b x f f 4 4.U 3.#.!.7.` R y & 7  .} 7 H y ; G * B t * t S $ t & S ` ].).].=.%.;.",
"2 Q 0 2 i 4 % * t A # !.).@ /.7.=.k e 3 > z z q % A X Q t ~.!.:...@.O V g :.n I = 4 6 4 7 Z O k %.B J $.+ #.#.2.!.2.W V ` T o x ",
"O ~.k K H G a E 3 E 4 2 B x : {.!.8.^.!.!.+ }.&.$ N # #.W 4.v % % x 9.e  . .+.&.W @ R ].-.*.^.~.t e | b E P ) 0 } q i t ; Q / A ",
"O g = & % h 7 h H t & N m ^.R S /.S @ A y =.&.7.^.+...P a [ # 7 j K ; i h z ! ! :.d i C r ] L 6 4 [ M M 7 [ G f E } e [ t Q o K ",
"j j + '.2.0.>.;.*.}.A S 4 a.b.c.b.c.9.d.b ' 9.| t y a & Q 4.` U #.@ H H O 7.8.O c +.. w F 4 M % E - i | E K i ; = 7 ... O ` j j ",
"e c 5 x e % $ X m Z @ b 6 / 9 |.z [.P b < , ! j f S # F I k F } x 3 - - E [ M a q 0 {.K K G K 4 } G x ) 3 i F Q X k ( F   h b [ ",
"2 3 ; G = . 8.+ ].` 3 l   } _ 5 j 7 / > d.! A | } l ; ' e./ x 4 | 2 - - H 3 B K 7 7 + $ j K % H h [ b 0 M E 3 G W T i M 9.P E 3 ",
"Z Z v g A +.g @.g - [ t G ^ b i a | > q i q 0 b # Q ; H ^.I G M Z ; j = 7 v ..+ U V 8.Q G ; y I l - Z X H K % = = S J =.T d S N ",
"[ ; M ) ! : x 2 9 G - K - K 5 } y h 7 $ :.:.q Q a V @.U ].J _.-./.}.J W R =.+ m n Z $ :.& & G h N [ % F M ; S N 3 B T @.V T d l ",
"F m t ; 5 } x B 8 % q ; 4 i v v % F y O %.8.h < 1 q H h j . 7.%.~.; 7 j > 5 e.! - l  .:.f.5.].d @.^.` & * * 0 8 ^ I G   2 } M K ",
"3 0 E 2 , f a [.e h ..k o $  .X k W @ + t 5 6 w 2 | ! ! ( c w 6 % + w B x b q y y ; N z P : / L 5 ) c z / : ! b.{ :.T V $ j q 3 ",
"v } 5 / _ : z f 5 w 7 d A A N H I X Z E Z 0 2 > B x f > b M H v t O i Z y I A S @ p _ x ) c 2 2 9 B 1 | 0 6 , 6 P +.% o T * F ; ",
"l k 7 [ M F = Q o G I I l 3 e N Z v I X T 7 h x B Q k =.+.e A H L 7 B h j C % [.* E : c.a.[.) ! 8 |.5 s a M P ( u H - a E } K   ",
"S V #.& = * A ~.- | B C y l a ) ( ( * [ Y +.=.U R I 4 q k h L > b M - } 5 s C l k q 6 u / s g.6 0 b C 5 h.r 8 w ^.V t   G y j $ ",
"- - P x 6  .4 K 2 v [ F x =  .h - - e $.4 k 7 n * =.6.  f ) B ..d E % l +.I m n J _.3.!.T R 0.i.;._.V l $ & k  .} e E y N o N ; ",
"M f H 0 f e x 1 c ( 3.F 3 c ! = X m 4 a y J m j q d.] 2 > B ! D j . x w 4 w 3 ( 9./ C M y ` 3.6.%.}.c b , ) _ 6 e K B 3 N o $ [ ",
"a C } > | 7 F ; 7 | * = * * H } , c q 6 [ % t s L u [.[.9 0 f = H H ;  .t e e v #.=.$.$.+ ).0 9 E H m E w [ K K 4 t   X = 8.X 4 ",
"o #   k  .4 Z % G & ^.j o A 4.N A M >   7 @ N ( [.u : 5 c , 3 a ! 6.M ) e.0 b i e $ ~.$ v 1 3 ~.+.@ o y H Z n m Q O C x 4 - Q T ",
"+.) A ).T 8.@.'.U W * #.t ).8.I ../.].%.<.2 Z % 0 3 q B c E c b | J 4 E B i t v c b e C q F Z     ; @.  * m ; I W o } E 9 % 7 C ",
"= = j h 3 % } c ( ^ 9 ( b , ( Z 2   B P u v # E w x w 3 [ , 4 B z $.g = $  .v T W @ n X  .-  .l  .7 l t F f x 6 = W 2 w ( b 4 l ",
"V O & I @.A  .E F - - * v l 7 N I S !.6.+.@.@ +.Z Q & t G H A t T J !.` X n @.%.Q h 9 ) b i C 0 w b / x X = = M E [ # @ ` T g 2 ",
"H t G R b X 8.V O . O 6.. +.` (.U W X $ ^.A P = <.}.Y <.'._.&.%.#.h ..<.f.<.*...& Z K l * 7 F   j j M i G G k * 7 2 * 9 9 / c | ",
"8 / / a.m 0 / 6 0 M a 5 C a | 8 3 x _ b.L j & o B K b ( ) ! P 9 j.k.l.m.m.r h.6 , f , G ; = l H F i e } - f B 7 } C 4 ! _ 5 B ; ",
"C a 1 ' n 2 - [ } c 8 L q w h C [ i j ; L ) i ^.| ( K 2 e > 2 | P _ ^ 9 5 5 / |.|.v e 7 # Z l v d G M C F E - w F 4 M ( [.6 > , ",
"' ) ) P * [.f | 1 L 9 , t a / / q q 0 j i x ~.n v | > ) ' ( B / P ) f % % b * y B o 4 =   O $ $ = A v 3 i M M M i H h 8 _ B 2 2 ",
"2 5 ' : K B   o k d ~.N . N i , , / b M Z % H a.A n j i x 6 5 a < E O ; [ d O n # ].o O ~.y y d +.$ G E C h i - h ).}.& O x b z ",
"2 - c :.C / 6 5 ' [.8 4 N ; n.# Q = = t Q 7 s * M A V *.X = O * X B 9 5 H m ].:.8.& o V +.d ~.$ k ` J @ k # y d @ 0.!.4.H G > b ",
",.o.).B -.7.*.R !.^.O # ; @.j t K > > - 2 4 x u / b 4 R b  .8.+ W T g Q n # t a ' h - e M ^., [ & 2.R {./.Y '.'.2.t = %.o T ^._.",
"G z | - , c 1 8 B h o 3.7 : : Q i | ^ 5 b 5 ! s 9 ( ' #.O 5 : | - x N H Z & & N g 2 % F +.= ) q / s ~ 9 > x 0 w f - P c.z p.9 d ",
"- B O   v E H j F X Q } C > E ; - 9.^ p ! ^ d.r : z w   }._.$.].].` v d W # ; F F +.X $.q.Q > / x , g < : [.1 [.s 0 3 ; f $ N M ",
" .* - ..$ $ Z F E h 3 N e = S Z a D [.p 5 _ r b.! | i b : 8 ( @ a 4 & ../.W #.*.3.:.g 4.* # ^.% h j @ : s 1 ' z 3 0 0 f , o N k ",
", h M | 6 0 a | - y A 4.J e @ d ~.x / z c ( ) c i t H t * a 2 b ;.^.S F q F [ x F  .4.* i   & T W A d F f B i b 0 M w > a y y 4 ",
"I # H G   w h j Q * o o +.8.w +.` W g +.. I ^.%.@ f f d & N i h . H l C  . .w K j H 7 # ~.k A H c.r.=.y b f w C M G v t S U t A ",
"T d A n m Q # V U /.+ #.]._ 0 v I ~.O !.o g M ' x F 8 Q :.,.;.(.^.o & # = v * & Q X = S k S +.g g ~.@ }.R U -.).=.!.).T . X Z 4.",
"B # 8.i K h } x 5 m.s.v K H * G m I m ..n # X . l Z Z e  .j = } !.=.3.6.).).$.J %.o S 4.A T W !.G c B B F d P C x | 9 ! 9 ^ d.p ",
"^ 5 , B z ) : _ P ! d.).U R 5.4.Z H 4 q b B > 4 (.[ c b.' F  .: :.% m f.5.@.>.}.-.!.*.$.7._.5.O z 4 B } 2 W %   } ! 8 5 u [._ 1 ",
"X 8.= I q s b.! [.P _ W n O y X N m k t N k S d ^.h t i / % y l t | h , ^ i M v E Q 4.n &.i.8.3 t , ! 9 v  .R ^.k y j % B } C ; ",
"j x ) l Z q 0 E x , b ..!...~.+.J o X Z = Z n . [ $ n T * * S  .4 |.M | M 3 2 > 6 c ^ h i ( c ..c ' [.G 3.e b 4 v . V 4.V ..` X ",
"i 3 ( M H z < 8 0 7 f x = /.7.3./.U g ^...$.t.) q c 0 h l G F x f > E =   | > H E } 7 4 B q N S 4 > a Z @  .E : f B | 2 | , M M ",
"b q > ^.4.#.. & C F 2 : ' / 1 |.|.A @.A {.Q 2 F F 7 4 4 q E 4 X } 0 } M 2 C 2 M i a % x K I E @.O  .y & 4.; q ^ / , a 0 a 6 0 [ ",
"3 } i ).8 [.q f B F } E - a , E q c L +.G v i C x l . K w Z x y ' ( q K | 7 G w 3 3 e % z A E & i v   . T [ 1 L L P p 4 c ' 9 0 ",
"a K K 7.k q F a ( 8 w }   3 } 3 3 6 a.= ~.u z | ~.% w | 4 z c d ; M f e K F v v 4.A 8.J +.e ).7  .4.:.-.O B { s b.! 8 0 z : 6 0 ",
") B 7 +.G E F l E 7 , | : c 0 B B a b r 3.= X U J :.. # J 8.%.F T @.V d @ I ~.o N ^.8.%.. O }.:.].).~.).+.H b._ 1 ! 5 c 0 f } B ",
"3 e . n j F C K % - X O  .E , ! ) u 4 q _.2 - j o ~.g = > : u.m.E ( [.x 4 ; +.8.W Q y o h.q # O v Q O =.].W Z [ a B E B %   F b ",
"t g O & G F [ ; } f ' M M p.8 _ B 3 | ~ N B $ E 3 6 > 4 K i 4 B a 4.  2 q B y } 9 4 m = ~.~.Q k ^.q 4 ].*.8.V 4.T . X y K 4 x   ",
"# e 0 # - M q  .A l 4 ^ - - ) b f c 1 >  .M M e - K } x | b v ; e * * A 4.).:.k . ` U 3.}.].:.v W #.A 3 F K O & 4.J ;.2.i.v.:.@ ",
"4.> 0 y * 0 < a B Q N F i t n = 4.X Q F 7 4 b c 3 } B E q j w   e X b   h i w M ! 9.e.e.s u z 2 1 u O 6 % v ( K z E :.H S t k 4.",
"d o o   i % Z 3 w Z $ v i e w B x v l . 0 % 3 ( 0 % E K M - j Z * 7 x 3 P | z 9 / ( K % K } > e N v % 3 q ( x / ) > R !./.}.=.@ ",
"z ! e.u d.a.! ; = 4.W ..m * h N # l Q = G - - , 2 q ; F % q % S $ :.& } C 4 h x K } 4 7 A - Z Q H ..C ! Q i ; < x 2 @ E 0 w c ' ",
"0 [.w 5 : B L a.. . +.A ` # k A % k O J F > C e - h H H Q $ X & J S A N [ i i Z j O ` @ U 3.<./.).6., B Z $ f S t E H K h % - h ",
"} 2 C a _ d.) : ; Q 8.@.V {.J _.:...O M j A @.{.^.= @ ; e - ..Y S e X W I _.o 3.Q h 3 ! p.< p < x { t 7 K N % j F d & c q e f ( ",
"q c u > |.( 0 0 o 0 S @.:.[ i ) B B M j E F w a l =.W m z K w ! , I G X = h {.[ B b : d.8 2 q E - > N = * ~.).* $ y ). .A S . Q ",
"% t } z ) q - G  .M a a 1 P [ H  .* O 8.!.$.!.%.+.E Q +.+.S Q e.9 w 6 e j k @.d * C 8 / | B > } 0 z + g   [.u ( ! d.f m ..7 } x ",
"j q > i h E   7  .; E N l . j O k $ t ; =  .Z h [ . H G # * x 8.h Q S I 8.;.H + ..+.t 4 w C [ q ; Q f p 5 ' / ) x M % e o @ m j ",
"t   z G H O t O ~.* v   $ o . I ^.).T :.6.I = o U U w B X l  .. $ - m ].).X b $ ` U &.}.` 4.& W ` w < p e.1 ! > 0 > w 2 n # S # "};
