/* XPM */
static char * cobble_xpm[] = {
"64 64 124 2",
"  	c #3B3B3B",
". 	c #3C3C3C",
"+ 	c #252525",
"@ 	c #141414",
"# 	c #202020",
"$ 	c #2F2F2F",
"% 	c #323232",
"& 	c #313131",
"* 	c #3F3F3F",
"= 	c #2D2D2D",
"- 	c #2E2E2E",
"; 	c #333333",
"> 	c #444444",
", 	c #3D3D3D",
"' 	c #525252",
") 	c #545454",
"! 	c #5C5C5C",
"~ 	c #595959",
"{ 	c #555555",
"] 	c #5D5D5D",
"^ 	c #717171",
"/ 	c #6F6F6F",
"( 	c #747474",
"_ 	c #646464",
": 	c #5B5B5B",
"< 	c #565656",
"[ 	c #575757",
"} 	c #606060",
"| 	c #5F5F5F",
"1 	c #636363",
"2 	c #4B4B4B",
"3 	c #626262",
"4 	c #535353",
"5 	c #4D4D4D",
"6 	c #484848",
"7 	c #5A5A5A",
"8 	c #414141",
"9 	c #505050",
"0 	c #494949",
"a 	c #515151",
"b 	c #464646",
"c 	c #434343",
"d 	c #212121",
"e 	c #303030",
"f 	c #2B2B2B",
"g 	c #383838",
"h 	c #262626",
"i 	c #292929",
"j 	c #676767",
"k 	c #585858",
"l 	c #454545",
"m 	c #424242",
"n 	c #656565",
"o 	c #6C6C6C",
"p 	c #353535",
"q 	c #616161",
"r 	c #4C4C4C",
"s 	c #393939",
"t 	c #4E4E4E",
"u 	c #363636",
"v 	c #4A4A4A",
"w 	c #707070",
"x 	c #404040",
"y 	c #3E3E3E",
"z 	c #373737",
"A 	c #282828",
"B 	c #272727",
"C 	c #191919",
"D 	c #343434",
"E 	c #474747",
"F 	c #4F4F4F",
"G 	c #5E5E5E",
"H 	c #1D1D1D",
"I 	c #121212",
"J 	c #242424",
"K 	c #2C2C2C",
"L 	c #1F1F1F",
"M 	c #232323",
"N 	c #070707",
"O 	c #222222",
"P 	c #2A2A2A",
"Q 	c #1C1C1C",
"R 	c #0F0F0F",
"S 	c #131313",
"T 	c #181818",
"U 	c #0D0D0D",
"V 	c #090909",
"W 	c #101010",
"X 	c #0A0A0A",
"Y 	c #060606",
"Z 	c #020202",
"` 	c #000000",
" .	c #1E1E1E",
"..	c #0C0C0C",
"+.	c #161616",
"@.	c #0B0B0B",
"#.	c #111111",
"$.	c #1A1A1A",
"%.	c #3A3A3A",
"&.	c #171717",
"*.	c #151515",
"=.	c #6A6A6A",
"-.	c #737373",
";.	c #040404",
">.	c #1B1B1B",
",.	c #686868",
"'.	c #0E0E0E",
").	c #050505",
"!.	c #666666",
"~.	c #6D6D6D",
"{.	c #696969",
"].	c #6B6B6B",
"^.	c #080808",
"/.	c #757575",
"(.	c #727272",
"_.	c #878787",
":.	c #8F8F8F",
"<.	c #898989",
"[.	c #767676",
"}.	c #6E6E6E",
"|.	c #030303",
"1.	c #010101",
"2.	c #7E7E7E",
"3.	c #7C7C7C",
"  . + @ # $ % & * = - % ; > , ' ) ! ~ ' { ] ^ / ( _ : < : [ } | 1 ( > 2 ' } { | 3 4 3 : 5 6 7 [ 8 . : ] | 9 9 9 0 ) 4 a b + c 8 ",
"5 d e . * > >   f g e ; h i + & j k l 7 m > n : 0 o _ 5 p q j ! ~ 7 r s 2 t b , u 2 ' 7 9 { v ] 1 = * t 0 2 2 ) 2 v 6 0 5 ; { w ",
"@ p . b ; x y , y s z A B + & C [ ~ 0 > q ) > 6 ~ j n t y m 4 b 4 4 D i r 9 E 7 k b F ! ~ q G v v H . E r ' v l 0 6 z % & I J k ",
"i K + D ; e h d C L i M $ J N O m $ ~   0 b D   > ' * $ & b [ 3 ! 9 b O H > ~ v < 3 | 4 1 7 m c z K J u   ; P d + + # Q # M 0 h ",
"C I R @ S T U V U W X Y Z ` W # c * . P f  .h & D ) _ r c l . $ - y b h I ..N C + m . b m s x u p ; d +.L  .A = & , p K & > 6 b ",
"c @.#.#.M K , 6 0 > 2 9 2 | ~ $.$ %.H d M H I S &.*.p H + Q d Q p ; L B g m a 9 z - W V Y @.X +.S H [ F v 4 c l 0 c * l > %.x 2 ",
"* ' t ! p $ y 8 , b , 8 x l 2 b H *.C C +...@.X $.$ ' 1 . . % = S ..= x E r . y 0 p l , > m t 0 =.e f g x s 0 g m 0 > 6 E E 2 b ",
"c J ) b > -   t E 6 > ' F 4 k   x t t - ; - P %.z z E 6 4 ) -.( ^ a B B & J D 8 m b   y 6 a ; 5 y ;.+ %.% D f z , > r c E v > E ",
"L R J a 5 v = b } F c 4 v { 9 p k [ _ ~ | } q q } k s D g , E a a y %.>.[ 2 8 b x $ l * > ) a a 7 A + f $ % % + K ; 2 E x y x - ",
"W b +.;.H &.M T &.O L +.S I T m a ' 3 n =.,.1 ) F t r r 6 M T W I +...H #.p -   z 2   z p , y % r p % p f e p - f  .+.+.*.R S ;.",
"' & a ' l 6 m p z e e C $.L R U R f 8 5 ' < { 0 x K - & p A *.C d >.P #  .C A B ; 6 k 6   %.i P S 2 $.'.#.@ @ ).T Z J O # O A F ",
"f A f c z y 9 b 5 b 6 ' 2 t | W T Q Q *.*.#.@.U e D = @ J + . 8 x 5 !.> z s + '.d H #.+.@.@. .P z 8 { 9 b k ~ 9 v 6 > p , & : = ",
"P  .; = * *   * z p = D $ H I K #.f  .f z @ W '.>.M O ~ 9 c =     c , > * { ] ] Q h c 6 ~.( !.k 6 m E b . m * 5 b v 8 m p & + m ",
", , +.N ).Z ;.N '.W K K 6 w {.o {.].n ].t : !.{ u u 9 = % J H T I Q z g i @.$.P ' M + 2 8 6 E * b l > { b c > , ; . M B K d , , ",
"m ) 7 t m m & $ e %.L F k : | =.< 1 k F 1 ) ] %.5 K - x h K x v F 5 > > l m b 9 0 9 U c c y > 6 v y t 7 t > 8 & e K < x . * 9 m ",
"' 5 y y % J >.I +. .5 g . 2 } 7     7 4 ].] = { v g , ! {.7 t 6 { ' l l z 5 r c     +.& %.> x g * c F 9 E l 5 y J d > E j ~ b 5 ",
"%.s g # $ h # Q  .> m p y n F > 9 { ' 0 > 0 a F - & , u Q B y E %.y   ; . s d S $.# H % y , p B g l %.- z > x D % f T W L + f ; ",
"c * E ~ ! | t ' G * l c > > ~ v p *   e C C v e 9 L $.&.+.&.^.V U ..&.d S #.S & P   ; Q - - y * D m * x E , K D 5 r d H M J i %.",
"8 e p , 7 v t r ] 8 0 , 0 > s s x 8 u P S >.* 3 3 0 %.8 . A '.&.i , y , ' : ,.] > z u $.Y ;.C i H H H e % p 9 ] _ i y . 4 v b c ",
"5 a b 4 ) r 9 1 8 * d f + e z - P O Q I p ~ [ v 4 { ! ] k ) v [ x @ 2 r t t v p u , D < k | : j 7 7 4 < 7 } ] =./ >.L L & %.0 t ",
"s v 7 : } } < r 7 2   A = = u %.A e   l %.a 4 a r F r ' F E g g p K > %.z i - = L ,.} F ~ 4 4 ' G r 3 { a [ { k k M * + # % 8 y ",
"s f . m b 8 % & + * B B g 5 8 D %.s B $ #   * t 2 & f I M 8 - z !.  2 y   E x 1 ; b | o / _ ~ ] G =.7 _ 9 b k [ } g l 9 b v c . ",
"f d *.e D & - P l ) r E p g 9 ~ < [ % 8 X M W Q S P v 0 - * j a 9 b l 0 7 _ 6 s = 6 [ q : _ /.[ a F 6 7 (.o G 2  .# p . , p   ; ",
"b > k t k u 0 > 4 %.m 8 t ; u y l l 8 #.6 P . i % #.@ , t ~ r M h l m s M h e i $.@.#.C M *.Z ` N @.M %.& $ P z 0 > b p D A D . ",
"E r z 9 5 8 t 3 4 < I 8 t 4 ] ; e & v a s >.e   2 ].( 4 a 2 ! w y h t 2 0 2 5 < n 7 E b p # U @ S U 4 F { 7 } k 8 c r 5 D + e m ",
"F E v ' { . x ,   ) ; ; % % z v ) 4 0 [ c * u n j q _ _ | a 5 ; z z y p D 8 m s @ #.R R S C 9 | l z $ b 2 m > > 6 p . $ ; >.- 6 ",
"h = . P u 6 %.x y - Q   + = M ; K b ' . .  .p < 1 q } 7 4 ) t 9 ] &.E ~ ,.a F > m & A & s 3 t B + H h u g %.i $ & P v a v E D M ",
"+ 7 $ T O H >.V >.J D @ p &.>.P J R C *.^.4 s x a t 0 r ) l ) F ) $.6 l r c p g 4 F m E 0 x %., . y H . % e * i M B 2 b G x   E ",
"; %   * 5 * v ' [ n G < F ) [ s 4   r ~ q s K b 2 t 2 5 c ) 6 r { @  .; e u s # J  .i & u b z %.z . g p x 5 F k ; M 4 2 k t 6 g ",
"d f - B $.K z l 8 > > %   g   p B f +.@ M H  .M s & - p y z K p d Q +.# $ i >.+.& x G ~ F > E a v F : t - D % E b m K H # O d 4 ",
"s u 8 +.9 $ L M K B f +.B + # N >.h & % L - ~ ; X R X ..X @.R +.*.y M X ).V U M $ s c g % . x , %.  b l y y P % . 4 ; | G : 4 { ",
"] ! 7 / % ' 7 [ 9 6 a 7 E 9 { ] 5 t } {.!.. e h 2 c t < k ] 7 | _.:.<.[./.~.^ k { 5 ) y , ; z z x > m 0 l 5 2 . v E 0 ] | 7 2 y ",
"6 9 3 ! f ' l m v 4 G !.0 2 * E c > %., !.~ c  .{ [ > ' m ' 4 { ~ q n G 7 : : =.].s 8 . = %.g s h y b E 8 b l 2 8 6 E k _ [ a { ",
"] ~ 7 k p 1 5 < q j G ) p 9 : 7 0 0 a %.> t i i s { a 7 ! < r : ~ ~ 5 x * 9 ; u 2 h 6 ;   P & e ; K s 5 > E b E > g y ] } r ' ' ",
"4 : : } c 5 * B = A A z h ; c ) ) : t b s y s }.K A   > t k 7 9 1 b P , m + i i = &.h P A u p h M e y b E y > > * T ..- i F F < ",
"' > 4 $.6 : [ : : 1 ] 6 ; y ` - % u u z D , _ D b $ d ..$ ; i % - r G 7 z & *.$.Q - +  .M h B e P H &.Q P K p h H Z @ M g y ' F ",
"` ` $.r @.'...S T H f - , >.%.p > ' ' l 4 6 t q : F 6 S t s  .@ + d # ; i = g F ! x E > 0  .< l & |.W ..W ^.N ).1.p ; @ h d Q X ",
", < { > 4 4 3 ] 2 x B #.y | | & > { !.: 9 7 ] _ | [ ! *.P ~ | { > t ; z %.- - D  .' x x O % ~ 0 : _ ^ G 9 t a v r l ~ o { }.G B ",
"l r i , s l z %.8 $ % v 6 ' b , > !.n ,.] !.].o | < v , '.V I &.*.H s h O = , x x M $ W |.& a : t ) L 3 | 1 3 1 n 9 5 , 5 & D E ",
"z & l d e & %.x l * 5 D 8 ; = %.9 w _ ,.7 } ~.{.] { > F | G [ d F 6 $ J '.J +...W Q d h % - >.x *    .| _ 3 : < t a a 5 { h D P ",
") * b { [ a 9 { l u = J &.8 L B A F : < 4 [ 7 ) > p z p % 9 4 t V  .= x 0 x m t x u M % > . $ # O f A 8 r r > 9 9 b 2 a 9 u p 6 ",
"B K g y . 2 y %.& % + + M Q v O  .d L O + h Q *.H 5 5 h - D > x + z z 6 z z v c   z   - A P K z ].2.I u F r r E E y s D f $.p = ",
"d B K i e & = L $.W @ *.T } 9   i P K C h d E ! t x ] ; >.` ).Y Q h - = ; s % $ & - ; f P f M L L B  .'.S $.X C S &.C O A $   + ",
"r = H c c 8 5 a ] [.-.g m z ; , $ B e M i = $ B g , %.m %., ; v *.W R @ &.+.R T S + K + K # O +.y 4 r r x A k 6 F { G ] G n =.,.",
"!.7 ) 2 < ~ | } ~ ] ].>.C I ;.B . s 2 0 t 2 a v ^.8 4 =.! x z | H x $ ).).H Z ..V *.V '...N 1.P < 6 r v ' d * . v ] G 7 q 1 q 3 ",
"$ H ; B 6 _ {.] 1 k } + f f p = D $ i D D P f h  .x p > : x p g z { x ) n > b   E p h - I ` Q 5 p ) ] G s g S H P p %.x 2 v b y ",
", t ~ g s 0 a b t { t O *.d A O T + $ s % s A B m e P O ; % = u 6 =.b { E 5 4 ' k 4 n y > < 4 M ) ! _ y R m F 0   B O + # O # & ",
"> t < b z [ 3 ] a , 5 t D W '.#.W T  .Q O W ` ~ 0 4 9 * g y 8 5 5 a b ; . { a z b v   6 2 0 D K 6 a 9 %.Q u b } 5 2 { ' { { b E ",
"F 0 a # + I i & v m ' | : : q =.=.e Q e U ; a 8 8   6 0 0 l 0 $ v a v E ' 6 ' E > F x t c i l $.K s s $ M y 0 n : ) 9 a 9 k a c ",
"t v l $.G _ 0 5 2 x v b l 9 ) l 0 4 j M y s > 6 t g J c 2 %.t u ! [ 6 c { . y 2 t 5 8 x < = l $ > s . J # m 3 ,.,.~ ,.6 4 ! G a ",
"a c c U P 0 8 9 [ ] 2 2 , 5 0 t 5 [ / z A } { { B x 2 { 6 < 4 h , E r 8 c x s s J K $.&.M m &.  z J C @.i 2 }._ =.] G 9 < } k ' ",
"~ r   + y b x g E   ) { | 4 9 5 r 9 F o I ; $ C &.C J = C  .+.8 d >. .h H B A + D >.>.@ J i '.$.+.&.B &.O z {.} 3 ! 7 4 a 5 v 2 ",
"t m h i %.x E > x l $ i u b ) ] ~ } 6 0 X ' l   A i O u ) | 3./.6 ~ _ t v * h  .M D z B (.v - P   D = I *.M %.m 9 2 b 2 x , x F ",
"p  .P - y x m , v r ! E b }.G q 2 5 < ^ u 2 e b 5 k ' 6 m > 0 2 F B , ' 0 2 u v G 6 $ ; i A & P Q 0 6 $.X $.L M L + - u c 0 t   ",
"e m ' e > E 0 z K g 6 n l l ~ F 5 4 3 ' z E b m b c v t < t s y 8 % % K J T $.f h # >.W R C >.. + @ K t 8 l K e J C ^.Y ` ` H # ",
"M ' 9 u % a 3 9 r & D x c D K u + $ & x   0 F ) t v r b 0 %.v . m e F * 8 l 5 b ] !.{.,._ } < ' q } f k x s [ c < l C u P D P M ",
"h + h . > 8 %.5 2 %.e   > 8 2 2 F s s h a * 5 < a * l c b l %.%.% . F 5 k { < G : [ > 8 c v ' m D s x t 0 [ t : ~ ' I *.'...W H ",
"{ ] ,.q ]./ ] , ; J O d $ % y D K g & ; y l l { ' 0 , 8 x v * f & $.= v E 6 * t c v 0 . f l s & g O E ] & > , 1 t ' H l a 2 4 : ",
"a _ v 7 | r j / + J M K  .= f f x P i $.x a E m l * g z e e - - C = K D m > > %.  i L L Q W X W &.+.) r %.& r f p b z > * * l x ",
"v 4 E 9 } o ~ | x % >.Q L ..$.X Q J K E   $  .U # D H * > E + V K m e J A X + #.D 8 t ] ~.3 j 3 F }.D . c D x   8 h = 4 0 m 5 [ ",
"0 4 q ' =.[ a a B a = >.$.m l ~ 2 2 b   l x 2 9 s @ O $ { > v ! ) B y - ; * '.c r t | o G 4 0 b > ' ; ; & A &.; e u T u K f J & ",
"* D v < 7 0 l y u E 9 9 3 k c z u % i >.*.W *.S M b % O O f % ,.G 2 [ 8   P H h % 6 ] : { 2 ' 2 9 < S  .* _ q < ! ].5 e #   v t ",
"  0 ' > y b .   u y b D g +   i P & D , ; z %.* 8 + s * = ; t >.* & f B >.Y u S d O p 0 2 E 8 0 , % t j : : ! ~ F E x 8 h Q $   ",
"D . < y g P D P A % s , e h J B Q +.# $.@ A ; + T $.v r $ g p + & > & *.&.- F e L $.'.'.L J & J H 2 3 ,.{.3 ! ' a ' v 4 i = f = "};
