/* XPM */
static char * ferns_fern2_xpm[] = {
"64 64 510 2",
"  	c 0",
". 	c #000000",
"+ 	c #010100",
"@ 	c #1F290F",
"# 	c #212B10",
"$ 	c #050702",
"% 	c #010201",
"& 	c #010000",
"* 	c #4A6023",
"= 	c #445820",
"- 	c #0B0E05",
"; 	c #101508",
"> 	c #0C0F06",
", 	c #070A03",
"' 	c #151F09",
") 	c #536F22",
"! 	c #506922",
"~ 	c #252F11",
"{ 	c #060803",
"] 	c #293215",
"^ 	c #2F3A18",
"/ 	c #0A0C05",
"( 	c #070903",
"_ 	c #020201",
": 	c #090C04",
"< 	c #0E1307",
"[ 	c #030402",
"} 	c #17250A",
"| 	c #3C5C18",
"1 	c #557B20",
"2 	c #567721",
"3 	c #49641E",
"4 	c #2B4112",
"5 	c #43571E",
"6 	c #586E28",
"7 	c #313F16",
"8 	c #1D250C",
"9 	c #050602",
"0 	c #16200A",
"a 	c #344D18",
"b 	c #20300D",
"c 	c #040602",
"d 	c #182609",
"e 	c #466C1B",
"f 	c #598422",
"g 	c #53791D",
"h 	c #4F741C",
"i 	c #507820",
"j 	c #567922",
"k 	c #638526",
"l 	c #506D20",
"m 	c #202B0D",
"n 	c #151B0A",
"o 	c #222A11",
"p 	c #0F1208",
"q 	c #161F09",
"r 	c #486A1D",
"s 	c #426719",
"t 	c #1F330D",
"u 	c #0E1506",
"v 	c #000100",
"w 	c #314A12",
"x 	c #547E1E",
"y 	c #4A7318",
"z 	c #3E6315",
"A 	c #568020",
"B 	c #547E20",
"C 	c #517B1D",
"D 	c #4F751B",
"E 	c #26380E",
"F 	c #1A240C",
"G 	c #44591E",
"H 	c #5A742B",
"I 	c #35431A",
"J 	c #070904",
"K 	c #020300",
"L 	c #17240A",
"M 	c #283812",
"N 	c #4D6F1D",
"O 	c #4B781A",
"P 	c #2B5210",
"Q 	c #2E4812",
"R 	c #0F1506",
"S 	c #334912",
"T 	c #4F791B",
"U 	c #426B15",
"V 	c #315710",
"W 	c #477319",
"X 	c #457119",
"Y 	c #3F6914",
"Z 	c #446B15",
"` 	c #3A5515",
" .	c #435F1C",
"..	c #577A23",
"+.	c #64882B",
"@.	c #384A19",
"#.	c #020401",
"$.	c #2A4412",
"%.	c #3C5E1A",
"&.	c #456E1A",
"*.	c #467417",
"=.	c #2C560E",
"-.	c #3E6414",
";.	c #202F0A",
">.	c #060802",
",.	c #3F5818",
"'.	c #527D1C",
").	c #416D16",
"!.	c #2E560F",
"~.	c #305C10",
"{.	c #2E5710",
"].	c #2B510D",
"^.	c #3D6115",
"/.	c #49681B",
"(.	c #50761E",
"_.	c #4F771B",
":.	c #4F741D",
"<.	c #202E0C",
"[.	c #010200",
"}.	c #050503",
"|.	c #3A5519",
"1.	c #3B5D17",
"2.	c #335912",
"3.	c #365D12",
"4.	c #3C6713",
"5.	c #396511",
"6.	c #213909",
"7.	c #070C02",
"8.	c #415C17",
"9.	c #517D1B",
"0.	c #3A6614",
"a.	c #264D0C",
"b.	c #1B4008",
"c.	c #21460B",
"d.	c #23460B",
"e.	c #446919",
"f.	c #51781E",
"g.	c #467018",
"h.	c #446E16",
"i.	c #426617",
"j.	c #142007",
"k.	c #030502",
"l.	c #131C07",
"m.	c #121906",
"n.	c #182008",
"o.	c #111805",
"p.	c #030401",
"q.	c #19230A",
"r.	c #557623",
"s.	c #426119",
"t.	c #2F4F11",
"u.	c #213F0B",
"v.	c #355B10",
"w.	c #2E5A0E",
"x.	c #1A3607",
"y.	c #132306",
"z.	c #3E6313",
"A.	c #4A7617",
"B.	c #325B10",
"C.	c #20430A",
"D.	c #203F0A",
"E.	c #2D4F0F",
"F.	c #2C4F10",
"G.	c #446A17",
"H.	c #497518",
"I.	c #335F10",
"J.	c #31580F",
"K.	c #446519",
"L.	c #1C280C",
"M.	c #1A270B",
"N.	c #304B12",
"O.	c #2B3E10",
"P.	c #2A3910",
"Q.	c #121806",
"R.	c #020200",
"S.	c #22330D",
"T.	c #587E20",
"U.	c #4E741D",
"V.	c #335512",
"W.	c #21400A",
"X.	c #21430A",
"Y.	c #204509",
"Z.	c #163406",
"`.	c #1B3908",
" +	c #2D550D",
".+	c #3E6613",
"++	c #335B10",
"@+	c #335510",
"#+	c #395912",
"$+	c #3F6116",
"%+	c #406417",
"&+	c #3D6613",
"*+	c #386311",
"=+	c #2A520D",
"-+	c #2E500F",
";+	c #4E701D",
">+	c #385015",
",+	c #325012",
"'+	c #395B14",
")+	c #293F0F",
"!+	c #131B07",
"~+	c #010101",
"{+	c #131D06",
"]+	c #436216",
"^+	c #557B1C",
"/+	c #335411",
"(+	c #2B4D0D",
"_+	c #23470A",
":+	c #183A07",
"<+	c #102D05",
"[+	c #153707",
"}+	c #163907",
"|+	c #193608",
"1+	c #30540F",
"2+	c #486E17",
"3+	c #355810",
"4+	c #426518",
"5+	c #527C1D",
"6+	c #386312",
"7+	c #29510D",
"8+	c #2F5610",
"9+	c #355613",
"0+	c #476C18",
"a+	c #406415",
"b+	c #2B4B0D",
"c+	c #22390B",
"d+	c #101905",
"e+	c #0E1405",
"f+	c #1A250A",
"g+	c #080C03",
"h+	c #0D1604",
"i+	c #324D10",
"j+	c #507618",
"k+	c #406313",
"l+	c #345810",
"m+	c #2F560D",
"n+	c #1B3C08",
"o+	c #0A2103",
"p+	c #0A2303",
"q+	c #0B2504",
"r+	c #051802",
"s+	c #2C480E",
"t+	c #385B11",
"u+	c #20410A",
"v+	c #375E13",
"w+	c #497619",
"x+	c #2D560F",
"y+	c #20460B",
"z+	c #30580F",
"A+	c #2C4E0E",
"B+	c #385E11",
"C+	c #365911",
"D+	c #243C0D",
"E+	c #131D07",
"F+	c #141C07",
"G+	c #0D1205",
"H+	c #25320E",
"I+	c #374E17",
"J+	c #263A0F",
"K+	c #21340C",
"L+	c #324E0F",
"M+	c #466D14",
"N+	c #4B7616",
"O+	c #386111",
"P+	c #3A6112",
"Q+	c #27480C",
"R+	c #193107",
"S+	c #112705",
"T+	c #081E02",
"U+	c #132A07",
"V+	c #2E4D0E",
"W+	c #1C3809",
"X+	c #173608",
"Y+	c #2C540E",
"Z+	c #366111",
"`+	c #24480C",
" @	c #1B3E09",
".@	c #25490B",
"+@	c #214109",
"@@	c #335A10",
"#@	c #385C16",
"$@	c #3E5919",
"%@	c #3A5116",
"&@	c #344A11",
"*@	c #172007",
"=@	c #020301",
"-@	c #090C03",
";@	c #222D0C",
">@	c #3F571B",
",@	c #49691C",
"'@	c #3A5714",
")@	c #2F4C0E",
"!@	c #385B10",
"~@	c #406B12",
"{@	c #305A0E",
"]@	c #386011",
"^@	c #31540E",
"/@	c #2D4E0D",
"(@	c #24420A",
"_@	c #0A1C02",
":@	c #1F3A0B",
"<@	c #1E3A09",
"[@	c #122D06",
"}@	c #1F440A",
"|@	c #23480B",
"1@	c #1E420A",
"2@	c #1D4009",
"3@	c #2B4E0C",
"4@	c #25450A",
"5@	c #2F5510",
"6@	c #3C6216",
"7@	c #4A711B",
"8@	c #456817",
"9@	c #25370B",
"0@	c #060901",
"a@	c #080B03",
"b@	c #26350E",
"c@	c #456418",
"d@	c #3D6013",
"e@	c #26460B",
"f@	c #233F0A",
"g@	c #2F540D",
"h@	c #29520B",
"i@	c #2B530C",
"j@	c #436916",
"k@	c #345910",
"l@	c #0D1E04",
"m@	c #26400D",
"n@	c #3C6013",
"o@	c #2F520E",
"p@	c #163107",
"q@	c #183608",
"r@	c #1F400A",
"s@	c #244A0B",
"t@	c #2F550E",
"u@	c #3D6411",
"v@	c #365B10",
"w@	c #2D530F",
"x@	c #355D11",
"y@	c #365C11",
"z@	c #23380B",
"A@	c #283A0C",
"B@	c #3C6012",
"C@	c #274B0B",
"D@	c #162E06",
"E@	c #264C0B",
"F@	c #254B0A",
"G@	c #33570E",
"H@	c #547A1E",
"I@	c #49741A",
"J@	c #1B3709",
"K@	c #28470D",
"L@	c #3D6312",
"M@	c #31570E",
"N@	c #1D3B09",
"O@	c #132906",
"P@	c #25440B",
"Q@	c #30570D",
"R@	c #376210",
"S@	c #416B12",
"T@	c #416914",
"U@	c #294F0D",
"V@	c #315A10",
"W@	c #3F6018",
"X@	c #354A14",
"Y@	c #232E0F",
"Z@	c #161D0A",
"`@	c #1F2C0B",
" #	c #395911",
".#	c #395C11",
"+#	c #25400C",
"@#	c #153007",
"##	c #193907",
"$#	c #1B3E07",
"%#	c #3C6114",
"&#	c #4C781A",
"*#	c #22480C",
"=#	c #193B08",
"-#	c #315A0D",
";#	c #1C3C09",
">#	c #0E2304",
",#	c #2C520E",
"'#	c #2C550D",
")#	c #335C0F",
"!#	c #30560F",
"~#	c #264C0C",
"{#	c #3A6214",
"]#	c #4F731D",
"^#	c #405A1C",
"/#	c #2C3C14",
"(#	c #2B3A11",
"_#	c #18210A",
":#	c #172009",
"<#	c #1B2909",
"[#	c #22380A",
"}#	c #3E5F13",
"|#	c #466A18",
"1#	c #1C350A",
"2#	c #041202",
"3#	c #0D2304",
"4#	c #0D2704",
"5#	c #173207",
"6#	c #3B6211",
"7#	c #21440A",
"8#	c #0B2403",
"9#	c #214609",
"0#	c #264D0B",
"a#	c #22430B",
"b#	c #23440C",
"c#	c #284E0D",
"d#	c #3D6514",
"e#	c #3A6013",
"f#	c #284C0D",
"g#	c #325A11",
"h#	c #436B15",
"i#	c #416715",
"j#	c #436B18",
"k#	c #476A1C",
"l#	c #415D1B",
"m#	c #344A13",
"n#	c #161E08",
"o#	c #020400",
"p#	c #111E04",
"q#	c #162906",
"r#	c #3D6014",
"s#	c #2E4E0F",
"t#	c #0C1E04",
"u#	c #071602",
"v#	c #051201",
"w#	c #041001",
"x#	c #30530E",
"y#	c #26490B",
"z#	c #061802",
"A#	c #0C2504",
"B#	c #133006",
"C#	c #203E09",
"D#	c #3B6514",
"E#	c #3E6815",
"F#	c #3F6915",
"G#	c #456E16",
"H#	c #365B11",
"I#	c #2C530E",
"J#	c #365E11",
"K#	c #396112",
"L#	c #325710",
"M#	c #315011",
"N#	c #273C0D",
"O#	c #172308",
"P#	c #0B1103",
"Q#	c #050A01",
"R#	c #132204",
"S#	c #142A05",
"T#	c #193307",
"U#	c #2F530E",
"V#	c #081702",
"W#	c #040E00",
"X#	c #0C1B03",
"Y#	c #162A07",
"Z#	c #0A1703",
"`#	c #071B03",
" $	c #1C3B08",
".$	c #497317",
"+$	c #446916",
"@$	c #294D0D",
"#$	c #23450A",
"$$	c #23480A",
"%$	c #264A0B",
"&$	c #203A09",
"*$	c #1F390A",
"=$	c #1C3009",
"-$	c #111B05",
";$	c #060902",
">$	c #050901",
",$	c #0C1903",
"'$	c #091802",
")$	c #182F06",
"!$	c #25470A",
"~$	c #142B05",
"{$	c #091902",
"]$	c #102204",
"^$	c #1D3909",
"/$	c #355D10",
"($	c #314F0F",
"_$	c #142206",
":$	c #132E06",
"<$	c #325B0F",
"[$	c #456914",
"}$	c #2C440D",
"|$	c #142C06",
"1$	c #163308",
"2$	c #182C07",
"3$	c #070E02",
"4$	c #040701",
"5$	c #010300",
"6$	c #020500",
"7$	c #030800",
"8$	c #132605",
"9$	c #162F06",
"0$	c #0C2103",
"a$	c #0F2404",
"b$	c #426C13",
"c$	c #1C3808",
"d$	c #254B0B",
"e$	c #396410",
"f$	c #2C4D0D",
"g$	c #213C0B",
"h$	c #1C390A",
"i$	c #25450F",
"j$	c #1B300A",
"k$	c #070B02",
"                                                                                                                                ",
"                                                                                                                                ",
"                                                                                                                                ",
"                                                                                                                                ",
"                                                                                                                                ",
"                                                                                                                                ",
"                                                                                                                                ",
"                                                                                                                                ",
"                                                                                                                                ",
"                                                                                                                                ",
"                                                                                                                                ",
"                                                                                                                                ",
"                                                                                                                                ",
"                                                                                                                                ",
"                                                                                                                                ",
"                                                                                                                                ",
"                                                                                                                                ",
"                                                                                                                                ",
"                                                                                                                                ",
"                                                                                                                                ",
"                                                                                                                                ",
"                                                                                                                                ",
"                                                                                                                                ",
"                                                                                                                                ",
"                                                                                                                                ",
"                                                                                                                                ",
"                                                                                                                                ",
"                                                                                                                                ",
"                                                                                                                                ",
"                                                                                                                                ",
"                                                                                                                                ",
"                                                                                                                                ",
"                                    . . . . . . . . . . . . . . . . . . . . . . . . . . . . . . . .                             ",
"                                    . . . . . . . . . . . . . . . . . . . . . . . . . . . . . . . .                             ",
"                                    . . . . . . . . . . . . . . . . . . . . . . . . . . . . . . . .                             ",
"                                    . . . . . . . . . . . . . . . . . . . . . . . . . . . . . . . .                             ",
"                                    . . . . . . . . . . . . . . . . . . . . . . . . . . . . . . . .                             ",
"                                    . . . . . . . . . . . . . . . . . . . . . . . . . . . . . . . .                             ",
"                                    . . . . . . . . . . . . . . . . . . . . . . . . . . . . . . . .                             ",
"                                    . . . . . . . . . . . . . . . + . . . . . . . . . . . . . . . .                             ",
"                                    . . . . . . . . . . . . . . @ # $ . % . . . . . . . . . . . . .                             ",
"                                    . . . . . . . . . . . . . & * = - . ; > + . . . . . . . . . . .                             ",
"                                    . . . . . . . . . . . . , ' ) ! ~ { ] ^ / ( _ . . . . . . . . .                             ",
"                                    . . . . . . : < [ . . . } | 1 2 3 4 5 6 7 8 9 . . . . . . . . .                             ",
"                                    . . . . . . 0 a b c . . d e f g h i j k l m + n o p % . . . . .                             ",
"                                    . . . . . + q r s t u v $ w x y z A B C D E F G H I J . . . . .                             ",
"                                    . . . . K L M N O P Q R & S T U V W X Y Z `  ...+.@.( . . . . .                             ",
"                                    . . . . #.$.%.&.*.=.-.;.>.,.'.).!.~.{.].^./.(._.:.<._ . + v [.v                             ",
"                                    . . . . }.|.1.2.3.4.5.6.7.8.9.0.a.b.c.d.e.f.g.h.i.j.k.l.m.n.o.p.                            ",
"                                    . . . . q.r.s.t.u.v.w.x.y.z.A.B.C.D.E.F.G.H.I.J.K.L.M.N.O.P.Q.R.                            ",
"                                    . . . . S.T.U.V.W.X.Y.Z.`. +.+++@+#+$+%+&+*+=+-+;+>+,+'+)+!+% .                             ",
"                                    . + ~+. {+]+^+/+(+_+:+<+[+}+|+1+2+3+4+5+6+7+8+9+0+a+b+c+d+K . .                             ",
"                                    v e+f+g+h+i+j+k+l+m+n+o+p+q+r+s+t+u+v+w+x+y+z+A+B+C+D+E+F+m.p..                             ",
"                                    G+H+I+J+K+L+M+N+O+P+Q+R+S+T+U+V+W+X+Y+Z+`+ @.@+@@@#@$@%@&@*@=@.                             ",
"                                    -@;@>@,@'@)@!@~@{@]@^@/@(@_@:@@+<@[@}@|@1@2@3@4@5@6@7@8@9@0@. .                             ",
"                                    . a@b@c@d@e@f@g@h@i@!@j@k@l@m@n@o@p@q@r@s@t@u@v@w@x@y@z@R ~+. .                             ",
"                                    . . a@A@B@C@D@e@E@F@G@H@I@J@K@L@M@N@O@P@Q@R@S@T@U@V@W@X@Y@9 =@=@                            ",
"                                    . % Z@`@ #.#+#W+@###$#%#&#*#=#-#i@;#>#N@,#'#)#!#~#{#]#N ^#/#(#_#                            ",
"                                    . % :#<#[#}#|#1#2#3#4#5#6#7#8#9#0#a#b#c#{#d#e#f#g#h#i#j#k#l#m#n#                            ",
"                                    . . o#p#q#f@r#s#t#u#v#w#x#y#z#A#B#C#D#E#F#G#H#I#J#K#L#M#N#O#P#v                             ",
"                                    . . . Q#R#S#T#U#C#V#W#X#(+U@Y#Z#`# $.$+$@$#$$$%$&$*$=$-$;$. . .                             ",
"                                    . . . . >$,$'$)$!$~${$]$^$/$($_$:$<$[$}$|$1$b#2$3$7.4$. . . . .                             ",
"                                    . . . . . 5$6$7$8$9$0$a$W.b$v.c$d$e$f$g$h$i$j$k$. . . . . . . .                             ",
"                                                                                                                                "};
