/* XPM */
static char * obsidian_brick_xpm[] = {
"64 64 126 2",
"  	c #2F2F2F",
". 	c #383838",
"+ 	c #404040",
"@ 	c #424242",
"# 	c #3D3D3D",
"$ 	c #3F3F3F",
"% 	c #3A3A3A",
"& 	c #363636",
"* 	c #4F4F4F",
"= 	c #393939",
"- 	c #3C3C3C",
"; 	c #373737",
"> 	c #4D4D4D",
", 	c #3E3E3E",
"' 	c #484848",
") 	c #444444",
"! 	c #333333",
"~ 	c #414141",
"{ 	c #505050",
"] 	c #474747",
"^ 	c #4E4E4E",
"/ 	c #4A4A4A",
"( 	c #515151",
"_ 	c #323232",
": 	c #494949",
"< 	c #353535",
"[ 	c #292929",
"} 	c #272727",
"| 	c #434343",
"1 	c #4B4B4B",
"2 	c #606060",
"3 	c #454545",
"4 	c #464646",
"5 	c #525252",
"6 	c #595959",
"7 	c #626262",
"8 	c #575757",
"9 	c #3B3B3B",
"0 	c #666666",
"a 	c #000000",
"b 	c #303030",
"c 	c #313131",
"d 	c #151515",
"e 	c #131313",
"f 	c #050505",
"g 	c #030303",
"h 	c #191919",
"i 	c #242424",
"j 	c #343434",
"k 	c #2B2B2B",
"l 	c #171717",
"m 	c #9F9F9F",
"n 	c #2E2E2E",
"o 	c #0F0F0F",
"p 	c #1E1E1E",
"q 	c #070707",
"r 	c #090909",
"s 	c #1F1F1F",
"t 	c #222222",
"u 	c #282828",
"v 	c #1C1C1C",
"w 	c #080808",
"x 	c #1A1A1A",
"y 	c #202020",
"z 	c #2A2A2A",
"A 	c #020202",
"B 	c #656565",
"C 	c #1B1B1B",
"D 	c #0A0A0A",
"E 	c #181818",
"F 	c #212121",
"G 	c #262626",
"H 	c #2D2D2D",
"I 	c #111111",
"J 	c #060606",
"K 	c #010101",
"L 	c #121212",
"M 	c #545454",
"N 	c #1D1D1D",
"O 	c #252525",
"P 	c #101010",
"Q 	c #141414",
"R 	c #0D0D0D",
"S 	c #0B0B0B",
"T 	c #161616",
"U 	c #0C0C0C",
"V 	c #0E0E0E",
"W 	c #6F6F6F",
"X 	c #2C2C2C",
"Y 	c #232323",
"Z 	c #7B7B7B",
"` 	c #040404",
" .	c #6B6B6B",
"..	c #4C4C4C",
"+.	c #5E5E5E",
"@.	c #797979",
"#.	c #555555",
"$.	c #6A6A6A",
"%.	c #8C8C8C",
"&.	c #686868",
"*.	c #5A5A5A",
"=.	c #A1A1A1",
"-.	c #616161",
";.	c #838383",
">.	c #717171",
",.	c #676767",
"'.	c #636363",
").	c #707070",
"!.	c #535353",
"~.	c #565656",
"{.	c #888888",
"].	c #727272",
"^.	c #585858",
"/.	c #5B5B5B",
"(.	c #747474",
"_.	c #5D5D5D",
":.	c #737373",
"<.	c #6C6C6C",
"[.	c #C9C9C9",
"}.	c #6D6D6D",
"|.	c #8D8D8D",
"1.	c #5C5C5C",
"2.	c #646464",
"3.	c #929292",
"4.	c #787878",
"5.	c #9B9B9B",
"  . + @ # . $ # % & * $ & . = . % - ; > , - ' # % . - - , ) $ # # . ! % ~ ~ { & ] ^ , ; , ) . @ / ( . _ , = % & ) : / < ! - % : ",
"[ } % $ # $ . | . $ @ > 1 2 > , # | : 3 @ , ~ % < 4 5 2 6 4 4 ~ @ = - 7 { = @ / $ @ = 8 $ = 9 ~ , / @ 0 3 $ # ~ ~ ^ : ] 1 $ & a ",
"b c d e f g h a i j k l } m a n o _ b f p q r l - e s l t , u v w v # { $ x p l f l y ~ w z A B ) < 6 , h C C D E ] g h } s F G ",
"H . g h I J r C r f K L C c j e t l C M N J } O n - t P Q o v p p x y o C C f C R G 9 , E = Q r D - : e v E C b & f S A A J T E ",
"9 n I N v x h U x [ v A q R [ V p s z s # d U s j - I E d o I f R K J r I l e U F a L I . D V u < 9 W * d T } s F l i - X q s s ",
"} c w z J r N R l O R H G l D U i } p H t Q r l N @ G L b e F [ e b h l Y e Q G V h H s d d ' h F n e o e p J u D J b - U Z N Q ",
"n H o N A K g ` U a K a V E x R [ i # / l J J g e q L y A I [ / o r P n w ! Q X C S J $ U N v e F T S H T K a a o e O _ $ = s F ",
"c . v 5 a d D J o a g f D K R w y c b T = L N K a E I v T V x Y } T y V S e o h v z T Q X e w G O H h x o I } { q b c _ > n } h ",
"u } v F d R e L w V s S w q a I f Q ; b * z T h U z L q _ D D x T x ! @ w f x J x R p E 3 9 A = C z O ] b e q f A w j s ]  .j l ",
"[ c I ' K x g R F H a h V Q f R f H ..& = i x S a o C F y ..y w L y c G o J . U ! V r a s G } ; T l C F O p q q S J s 9 +.1 } p ",
"c ! E n ! w v P a Y ^ } u o q x H d [ s H ! s z s c s i V l : d T E e } p L I D s P I q S h @.S 9 R [ ; S y r ` w   d N i H n N ",
"z ! p #.a t y o t T w M ) T q N c X I A p L ! n S L Q x n k S I u d d e 3 f o E ( L a A r D . H G z l x ^ y J t < v } t U f } C ",
"; n - S ` t C n L C c s c w 2 Q h l F e C L x E } l P J J / Y G z Q D p + e A E F S L x [ $ L e [ I _ X x ! x o z $ y L H E v n ",
"c j   V k a P . + I R J l A $.e l F a D q R p v E X o v u ` ! j l s   ; q l > J I J s u + d x q I u X E F Y C V x i H v R J i l ",
"! 4 r y o K K a D n [ f P L _ C l r v D U J G E r Y L p , R %.V v G n T t z k y V l @ c   t O d p c E G O S K t x &.s Y L G t c ",
"H k g a U a g U . S J d E #   & x l o x E e T 7 e x f I e *.=.Q h L X d ` ! X T } k v L A d G ! Y -.S U X o P h L A P _ 4 } ; ! ",
"% c Y ) S i x t U U w F R Y | G t f N F g p x = x E o } ;.@.F a o a q o h O @   *.x q J r r G t < [ N h H F S R ] d f T L r T v ",
"  c _ V q ` F V U } P v p O C + v z a K E r 9 K V F b R >.N Q D q . 3 V Y $ H ~ z u = y S ! F u % o @ p   l D Y F   Y ! > X E Q ",
"    9 l O r g L D n s h d d x s F w c I s ` P r o n q h d % f l Q g a g P b O ..y D P E L o R l C R G Y G 7 Y F } C F 8 -.t l Q ",
"u ! | y e S g q D q q w i e F R d a X e L v O s l p # ' L b n d f V ' v Q [ O G L } k S S D S ) U T Y t = x E O C O 9 8 ,.4 h v ",
"9 _ C I N t I p E v w y I N + h I q f ! x e q n h X D Y ` , y x L ] a d '.y o a a a a G y L f v V y l   X I p I O L a E Y b z G ",
"c 9 P U l U l N D w y h P z 1 u a f r d a f G U O   p N } # w n d , t * Q I r a a a Y _ y c K r - Y w P Q T s r d G f r s N v t ",
"^ : y Q x S o a c F g o U @ [ z r ` e N f [ I ` s J N n N z i e E h c c J r V I C J z j Y a D P E o d e y h J s T r o P t P u n ",
"# % b O E d R Q D x O u F } o I E N a g d U k w 1 1 h ).R y } a s y o Q o P Y p a p t t D b a E i s Q V f q q Y r V [ S n A C s ",
"= , x T e ` s E y ` x Q R P Q l a t f ^ D V R . ` v ~ L K ` < E [ } X Q T D a } !.A P y ] & I V n O l k & L o N q h t w N A x } ",
"> 3 h U S x P E G   F s #.f e k 2 S ~ z $.} h V e N Q = f C A v w Y J v O R E J w   l G X , H V Q o w h S D R V P q f y + q p H ",
"= & h f L h J A D x z V e y p v ~.* G 4 H h u % } N [ z w x X P o d A s e Y D L Q & J [ O c ~ g K Q O E u   p R w S R N G w p u ",
"@ j s 8 S C q f D U I S g D a F r I Y O ~ a e r J d w g C e F h v p N f C 4 {.7 7 N T , P a N L e N o t n F L s L o d d e y x l ",
") & _ s t Q y N P I y V P t L N U L g C F I e P P o w w r v w , F h   a a a a o i b e q S f [ h a o t o x I t w v i [ I q r C N ",
"z = R U R Y n e o R C U I } D w D w N a } J l r r F p h J v D H l D g g A K a a a G ].u E R S t P N g s g L P L T T f q D S v l ",
"X k U J r g J R D w S A g g V U A J E g I I q U J a w C Y w w R w A A S q A T K d R I S J f A r q A R K q J D A ` R S S ` q q s ",
"L a ` a K a a ` ` A o a g K ` a a a r f a a a a a ` ` a g r a r A a a a r g a a a a a a a a a a a a a a a a a f a a a ` K K K f ",
"@ - = - = ~ 2 $ @ @ ^.# # / $ / @ !.| # , 9 - , # 1 * ) % $ ; 2 Y $ % : ~ + 4 = # $ #.# $ = - 9 + ~ = ) 1 3 ~ ^ 9 # . : = ) : + ",
"/ 9 % > *.4 $ 3 ~ $ @ ! #.4 9 , + - / ~./.9 $ | - + 6 4 3 : ] ` T u c 9 $ 9 $ = @ & 1 | * 9 (.+ # 9 ..1 , % ) # % & 5 _.#.5 : $ ",
"L e #   5 H h u a L l ] E L l . 7 H ~ { < I x Q v   e o H v x b i b y O ` a Q q r _ ; I F :.@ Q y s _ P F K U D H b d y E ; & e ",
"} S n v q Y o r T v = ! & O k S a x ^ X t T v O = P l a r a P E F c i q l D q i a V K w d H X X l v T @   e h H x $   T e P L C ",
"o g q J q o N Q P e g P z X a G p : * W p l C y X R z _ i y l t O - x C O V p P S b F o a r p N l L b i . C I I } ! < S h N D D ",
"u T O e x v e i x I F . g l @ c P P , f d F P F w U O b G <.v N N [ h t E J w p d h C C   E h R f c z l c E e R C & < I Y O I k ",
"O f U p T F O } p L T E Y i l E P s U r - r a a a D k i ~ / N t u [ x T e f J K P a a a a d [ U h y j ~ _ e ` a r I A p x K R 8 ",
"D b d p q e o V b J   o < q l x x X < S L V f {.a E = ! # s ' t F < @ E X ` P r T a A A q r a P L k k . F N t f a f T y D v e k ",
"Q e y 8 T J w N r N K < Q 8 I < o ! h . = X r J q J v } 3 H ,.X N [ b R P i U d R w V E o K r a V d e ~ ^ ; E F R N C q O x P I ",
"y E d % s a y [ l i ` D S s I #.y d V n Y T I e a I a < !.] ] [ s [ y j i P R A E O h f N I ` V ` y < : ~ Y N L w A L N [ 3 d N ",
"V E h E G I h S d T r h g T 3 3 [ F I . C t J D J L ; o [ F _ t k H Y x ; y T l D D ' ! Y v U d } T y O t ;   l y c H Y E f % ; ",
"t T p E p t E U + [ w ` K D [ X z   e y b & Q v i X G Y T a h G y n [ ( R R H L e t e G #.t l d O i X a I C } ! h o f O S 4 P V ",
"F C R y X F J e C T w F N i $ l l G U $ O Y y L t _ < e s [ E Y <   = z a Q y u s I C @ v i c ) V V p y I x N S z v Q f R ; U ' ",
"F C n n v V #.g l ` d y ; u h e g v , I Y F F d e C [ H V f F Q i = + U s P A T / ! e a e L j = v e d A w S V y Y O o P ; V q 1 ",
"s v Y ! U G 9 x E R k 4 . G x s d . l p k I D T l . > Y N h O O ; & n z a S a K a i = D I e u L X q T q V R U z I e d l [ 9 4 @ ",
"s e t x U k } O k R % q R V x H   } ' Q v s w T y a P d ' F 4 % u k C a r w a S e n g P N A :.Y p p D L G D E C <.` e h g y [.s ",
"g R f K D k _ < $.h d f A I E i n } u h T # r o y . U L U l w E z ! X 9 v Y l H A x w e Q I . n b e V h N q F l + V v Q '.}.7 K ",
"D a |.a Q b 9 = i - c H Q t [ p & k   t G } R R ! z p b ~ - Y Q v _ & v r w a ; A E t d s I n - E u e a V V i t A I + V [ (.a l ",
"P e a ` g u k ) F L v x o r I o e h T [ k ) n b X x U 3  .# x d p c ; O G T g r P L , q N V O d h t e [ Y f J D L l T V v ; h S ",
"U ` ) Q c f X G F v G s w R K ^ J e v t % G L R ; d n > ,.7 x i p X # k Y q U A P a R ` v P G T D U x h p U x b v I I 2 Y u _ Y ",
"C X s A / < y g a a a P X x w L P h p C < Q O d x x r K G z b } n % Y d E O U N u e e d e Q z ' f w J } d T I r ; p x y S t ; h ",
"u < F @ k y U a a a g 3 d z i q Q # d a v x P e h l h J Q t e i z c t h o L P d E V q H o R : 4 f ` a x f K T V H n G K ; u b J ",
"V k } ! D o I w P Q e b & R a N g y w e O C S R d t K S p C y } < ^.< P x Q w r l } l J U Y 4 v C w R r i l Q S s D o o ..U [ p ",
"o s Y K v r x p R R G v o Y N P d G T d J g Q P e U C N x p D T = = & u O V V h D U b v u h H S V p U a P e t r H 1.; ; % p p P ",
"E E = b J Q A S 5 h J N = # i a z O } l c k o r N a X E f d P s c ,   l o U d e s I D Y S q x C A x U k z R e o n q u 3 a ` f ] ",
"Y d R ` b e e T a O C i Y . % t r d w h U R w S x g r Y V b d G # 3 | a V L L s L _ u v +.S r l 2.y Y ; ^ *.R l E V i [ T e V ` ",
"V d f e C v T D T } T l k Y ( P D g Y p C c i E K V S p p o T Y & & O R V l P A f S X x R } L s % *.; _ & F v % b k e _ E d s y ",
"F x i w V F ).3.7 _ v e % f r O A z g F X Y C E C S L E o p N l X # d 4.U V T f A U e V J K R w x A z . a . g I r E a r g < D C ",
"r , I s a a a a F b v e r A s d e q d x C e E E S k N i r D I v z @ ! [ t N l h Y o Q s f e T n o U o I w s i q L P R ` V Q J . ",
"t P S K A ` a a a P y 5.o g d D x x d U l g E q d t q w w o L T i c s P D T O n q S v P x x I S g V r Q I F q Q ` e s G f C S v ",
"U f g f S ` D R V V w E g q f f r K f S g f U g f K Q D q J ` T G j Q J r J f q U U D f g a U U w a e S f E o J D K g q b V w r ",
"l f g q r R w J a ` L a w w A J a K a R q U ` J q R g S J K I D x q g w f U ` S R V x p U S D V q I e P w a a A a Q V I o r V r "};
