/* XPM */
static char * obsidian_block_xpm[] = {
"64 64 129 2",
"  	c #585858",
". 	c #3A3A3A",
"+ 	c #4B4B4B",
"@ 	c #505050",
"# 	c #484848",
"$ 	c #404040",
"% 	c #474747",
"& 	c #3C3C3C",
"* 	c #5F5F5F",
"= 	c #4C4C4C",
"- 	c #393939",
"; 	c #3D3D3D",
"> 	c #454545",
", 	c #606060",
"' 	c #444444",
") 	c #424242",
"! 	c #434343",
"~ 	c #525252",
"{ 	c #464646",
"] 	c #353535",
"^ 	c #4A4A4A",
"/ 	c #636363",
"( 	c #3B3B3B",
"_ 	c #575757",
": 	c #535353",
"< 	c #3E3E3E",
"[ 	c #4E4E4E",
"} 	c #5A5A5A",
"| 	c #666666",
"1 	c #323232",
"2 	c #414141",
"3 	c #5B5B5B",
"4 	c #383838",
"5 	c #343434",
"6 	c #757575",
"7 	c #5D5D5D",
"8 	c #1B1B1B",
"9 	c #040404",
"0 	c #101010",
"a 	c #0B0B0B",
"b 	c #111111",
"c 	c #020202",
"d 	c #171717",
"e 	c #141414",
"f 	c #1A1A1A",
"g 	c #2E2E2E",
"h 	c #2A2A2A",
"i 	c #2D2D2D",
"j 	c #121212",
"k 	c #0C0C0C",
"l 	c #1D1D1D",
"m 	c #272727",
"n 	c #151515",
"o 	c #0F0F0F",
"p 	c #131313",
"q 	c #070707",
"r 	c #000000",
"s 	c #1E1E1E",
"t 	c #232323",
"u 	c #242424",
"v 	c #161616",
"w 	c #0D0D0D",
"x 	c #545454",
"y 	c #030303",
"z 	c #060606",
"A 	c #333333",
"B 	c #090909",
"C 	c #191919",
"D 	c #262626",
"E 	c #5C5C5C",
"F 	c #1F1F1F",
"G 	c #303030",
"H 	c #686868",
"I 	c #080808",
"J 	c #1C1C1C",
"K 	c #373737",
"L 	c #181818",
"M 	c #292929",
"N 	c #A0A0A0",
"O 	c #313131",
"P 	c #222222",
"Q 	c #0A0A0A",
"R 	c #3F3F3F",
"S 	c #212121",
"T 	c #363636",
"U 	c #494949",
"V 	c #050505",
"W 	c #202020",
"X 	c #010101",
"Y 	c #252525",
"Z 	c #0E0E0E",
"` 	c #282828",
" .	c #6F6F6F",
"..	c #4F4F4F",
"+.	c #2C2C2C",
"@.	c #7C7C7C",
"#.	c #4D4D4D",
"$.	c #2F2F2F",
"%.	c #696969",
"&.	c #555555",
"*.	c #5E5E5E",
"=.	c #797979",
"-.	c #2B2B2B",
";.	c #515151",
">.	c #6A6A6A",
",.	c #8C8C8C",
"'.	c #6E6E6E",
").	c #626262",
"!.	c #A1A1A1",
"~.	c #616161",
"{.	c #727272",
"].	c #595959",
"^.	c #838383",
"/.	c #717171",
"(.	c #676767",
"_.	c #7D7D7D",
":.	c #707070",
"<.	c #656565",
"[.	c #565656",
"}.	c #888888",
"|.	c #6D6D6D",
"1.	c #767676",
"2.	c #ADADAD",
"3.	c #6B6B6B",
"4.	c #6C6C6C",
"5.	c #777777",
"6.	c #7E7E7E",
"7.	c #A3A3A3",
"8.	c #868686",
"  . + @ # $ # % $ & * = - ; $ ; $ > ; , # '   ' ) ; ' ! # ~ + % { & ] ) = ^ / ( _ , # ; # : < [ } | < 1 % 2 ! . : } 3 4 5 ' ! 6 ",
"7 8 9 0 a b c d 9 e f g h + i j k l m l n o p q r s - @ 2 t u v d 9 w x ] y 8 m b d z A b z B C p D f E F p 0 n d G t D h p 1 H ",
"' o C v I z J r m K i L M N r O b 5 O q P Q k f R n S L u $ h s Q F R @ 2 J S C q f P > a i 9 | % T } R 8 l s k 8 U V f M P 8 x ",
"2 W 9 C b z B 8 B V X j 8 O 5 p P d 8 x l z m Y g & P 0 e o J s s f W o 8 8 V 8 w D ( < L - e B Q & U p J L 8 G T V a c c q r ; ",
"E B p l J f C k f M J c q w M Z s F h F ; n k F 5 & b L n o b V w X z B b d p k S r j b 4 Q Z ` ] (  ...n v m F S d u & +.I v ^ ",
"] o B h z B l w d Y w i D d Q k u m s i P e B d l ) D j G p S M p G C d t p e D Z C i F n n # C S g p o p s z ` Q z G & k @.n ] ",
"! V b l c X y 9 k r X r Z L f w M u ; ^ d z z y p q j W c b M ^ o B 0 g I A e +.8 a z R k l J p S v a i v X r r o p Y 1 R . C ..",
"# D l ~ r n Q z o r y V Q X w I W O G v - j l X r L b J v Z f t m v W Z a p o C J h v e +.p I D Y i C f o b m @ q G O 1 #.g $.$ ",
"T r F S n w p j I Z F a I q r b V e K G ..h v C k h j q 1 Q Q f v f A ) I V f z f w s L > ( c - 8 h Y % G p q V c I 5 F % %.&.. ",
"4 0 j # X f y w S i r C Z e V w V i = T - u f a r o 8 S W = W I j W O D o z 4 k A Z B r F D m K v d 8 S Y s q q a z F ( *.^ 1 U ",
"# v f g A I J 0 r t [ m ` o q f i n M F i A F h F O F u Z d U n v L p m s j b Q F 0 b q a C =.a ( w M K a W B 9 I $.n l u +.; % ",
"( v F &.r P W o P v I x ' v q l O +.b c s j A g a j e f g -.a b ` n n p > V o L ;.j r c B Q 4 i D h d f [ W z P ] J m P k V ` ' ",
"x w < a 9 P 8 g j 8 O F O I , e C d S p 8 j f L m d 0 z z ^ t D h e Q s $ p c L S a j f M R j p M b 1 +.f A f o h R W j i C b %.",
"# l O Z -.r 0 4 $ b w z d c >.p d S r Q q w s J L +.o J ` 9 A 5 d F $.K q d #.z b z F ` $ n f q b ` +.L S t 8 Z f u i J w V S & ",
"= 2 B W o X X r Q g M V 0 j 1 8 d B J Q k z D L B t j s < w ,.Z J D g v P h -.W Z d ) O $.P Y n s O L D Y a X P f H F t j D P '.",
"2 X V r k r y k 4 a z n L ; $.T f d o f L p v ).p f V b p } !.e C j +.n 9 A +.v m -.J j c n D A t ~.a k +.o 0 C j c 0 1 { Y _ {.",
"].j Y ' a u f P k k I S w t ! D P V l S y s f - f L o m ^.=.S r o r q o C Y ) $.} f q z B B D P ] M l C i S a w % n V v j Q r > ",
"> n A Z q 9 S Z k m 0 J s Y 8 $ J h r X L B ( X Z S G w /.l e Q q 4 > Z t R i 2 h ` - W a A S ` . o ) s $.d Q t S $.t A #.+.z T ",
"! o & d Y B y j Q g F C n n f F S I O b F 9 0 B o g q C n . V d e y r y 0 G Y = W Q 0 L j o w d 8 w D t D ).t S m 8 S _ ~.t V ] ",
"] L > W p a y q Q q q I u p S w n r +.p j J Y F d s ; # j G g n V Z # J e M Y D j m -.a a Q a ' k v t P - f L Y 8 Y ( _ (.% a > ",
"7 p l b l P b s L J I W b l $ C b q V A f p q g C +.Q t 9 < W f j % r n / W o r r r r D W j V J Z W d $.+.b s b Y j r L t $.5 _ ",
"# M b k d k d l Q I W C 0 h + ` r V B n r V D k Y $.s l m ; I g n < P ..e b B r r r t 1 W O X B & t I 0 e v F B n D V B F s o @ ",
"_.#.W e f a o r O S y o k ) M h B 9 p l V M b 9 F z l g l h u p L C O O z B Z b 8 z h 5 t r Q 0 L o n p W C z F v B o 0 P o -.H ",
"* ` O Y L n w e Q f Y ` S m o b L l r y n k -.I + + C :.w W m r F W o e o 0 t s r s P P Q G r L u F e Z V q q t B Z M a g y a + ",
"_ A 8 v p 9 F L W 9 f e w 0 e d r P V [ Q Z w 4 9 J 2 j X 9 ] L M m +.e v Q r m : c 0 W % T b Z g Y d -.T j o l q C P I l y I } ",
"@.! C k a f 0 L D $.S F &.V p -., a 2 h >.m C Z p l e - V 8 c J I t z J Y w L z I $.d D +.< i Z e o I C a Q w Z 0 q V W $ q e <.",
"_ l f V j C z c Q f h Z p W s J [...D { i C ` . m l M h I f +.0 o n c F p t Q j e T z M Y O 2 y X e Y L ` $.s w I a w l D B e 7 ",
">.v S _ a 8 q V Q k b a y Q r S B b t Y 2 r p B z n I y 8 p S C J s l V 8 { }.).).l v < 0 r l j p l o P g S j F j o n n p S w & ",
">.s A F P e W l 0 b W Z 0 P j l k j y 8 S b p 0 0 o I I B J I < S C $.r r r r o u G p q a V M C r o P o f b P I J u M b q Q w % ",
". P w k w t +.b Z w f k b D B I Q I 8 r D 9 v B B S l d y 8 Q +.n Q y y X X r r r Y  .D L w Q W o J c F c j o b v n 9 q Q Q Z & ",
"R n t Z d B p P L n f 9 I Q S l V o R V -.h n l o r e ' [.d e P n V V J b 9 ] X A S T W o w z C 0 B F z b w d V Q S f 8 Q b V U ",
"] z e p Z o a t G Z |.h l v Y s Z ] M u X r 9 r Q - W D t P p K l V Z X -.8 X k B a 8 9 w d 0 r r r I v ` 0 B L n p w e a n n ) ",
"#.a r o C e ^ o W g d p v h q P G . r V v Z p k P O A r r n c >.G r s t v Z o p b d t s Q 0 o Q w v o - f 0 4 b o B D j $.i n U ",
"^ r 8 , ; Z l m j n b W 0 0 j h o A i <.] p j f L m g 1 $.F & $ i L Q Z k v c J z P d A J 6 P L w D 1 e Q f z y r D . : ] m u + ",
"' C & G R -.f W z 8 l U e Y r 3 U M ;.- W 8 F e F $ c Z -.l w W I p l p z w J c h 5 Y J < 1.r g f O t p u Q p g ' f J k u 4 C [.",
"#.Z ` p e p 9 j B l ' 2 ` ) b y o 4 = d s v l M 5 q w X V q c w b S X s p q o o e y r o J G A o J L -.= s z h d 4 ( s d L p 8 # ",
"; X c o Q p C e s r z q Y 0 d h 1 O H E n d P F ` w g < D I f C 4 9 L S v J L o J D W 9 z b h o t D u W g L Q M ] < 0 d p I I & ",
"= h C L P 8 j D j 8 P O o 0 % i d D J e l 8 9 ` 9 B i 2 B 2.w y r e j u r I J Z f J Q m 8 e 9 Q M i v 2 J 0 z o l 4 C W O Z 1 [.",
"= y 0 i z h v i L I 0 K w F 8 a S 8 Q j d z r w w a +.h ' h s Y p k k j c r r z y r r r f S p o M M ) K 8 B V z j B f n r p G 3.",
"@ d s w B j k 0 h J C Q < e X +.F A P l v e V ~ y h $.A x t 2 Z n -.0 / r e k o k V q q V r j z s +.. b ] L d 9 r f b d P 0 v ; ",
") d O x Q q 8 0 v J e s i { r $ Z F W > g u I I c I O J [.<.].e r 9 8 J 8 k n e I a S Z z z r C a j { < U t 8 v 0 +.b b -.B I = ",
"^ s F i v z 5 p G q z y L t S $ d C p -.h 0 V 0 I y w ' 7 ( 5 u c f W ] w v r Q J K k L w j I z q K + ] Y u d B r B P S u % t $ ",
"{ e j W +.Q p 9 P j k 0 k v 4.v ; C P ] B 1 X B Z -.u o 8 s { w 8 L n &.Y k l b r D $ i < j Q m O w s f K O W 5 -.1 n m e W T R ",
"x Z 8 L 5 q 0 e #.L r r V z & M ` M p l ..D I F A P ( F e r D A I C D S V t 8 p Y j k x i p I L 1 K k V C p i u Q B 8 0 . J o [ ",
"&.d I s > b p d t k L Y M < n v S P $.h F +.f Z -.K l d h l 0 +.J u ' q z u u ( f s A p P b 5.Q n v J b l b v 8 t F v V I ; 1 % ",
"% C T - z v U X o X d D { a f a b u -.e S S L k k Y ` C e I G r l F S v O r k G 5 Q C I f B ~ C p l r w w o s s 0 h Q -.M r ;.E ",
"[ t D t f m < D 0 n $ i h D u L v $.n Y u z c u L *.h m p S ) *.C T I b X 9 c r j O C q a d +.f Q Q n a w Q 1 C z C d W < z _.2 ",
"+ I i w c ] 1 e = s W o V b P 5 +.E f Q -.e Z 8 8 r k - < e 2 @ r w 9 y a q y o T z z F j *.` & Y 0 b S w j a 6.9 J B 9 W 7. .= ",
"& r r w Z ` K 1 ..L 0 B z o Y S 5 W u s M G k Q ! m q b C d r 9 +.n m 5 e 8 M L e Q B J b t ' P d Z W W r Y 8 g j L j < =.: r ] ",
"2 Q 3.V D ( g { m $.A i a 4 P u ( 0 ! s i m q t +.i J . : $.e r f v ] v Q X h r p 5 b f p $.b . J Y r r f 9 . r n ; f k }.w d ; ",
"2 V r V B O P = 8 r v 0 L V Q w b 0 F s g @ l s P 8 f % 3.-.9 9 w J 5 8 u Q r b z i n W e d C L g c . C j 9 Q w I L S S o 1 r { ",
"& I % b l l D l o t ` Z V a r H B L u P T l l J m s 5 [.%.*.Q F q l + S B w y B V Q y w W J C k b r Y j n S h l v s R #.b T u ' ",
"' : q 8 3.S w r r r 9 h -.v q w Z C d M G 0 F o S L 9 a J s 4 h i j Z j m J 8 M p f k 8 0 C [ j Z q Z h j d y ! l Y b 0 0 ( J @ ",
"U 4 J { w j e r c c d ] L +.Z B 4 K o Z b s 8 B J s y Q C u Z g t A a k b I b 8 j q D n o 2 = l X 9 w F r q i Z D 1 f O F = X   ",
"' p - ] B 0 k o d a D T u V c e Z 9 p w D v c f k d 0 Q D k M ` ~.R F L f B j r i W r Z a @ L m Z I a v r F e o d y p ( p W W > ",
"{ F w b a I W m y L u 8 e -.V W P ` p w r y w t o z -.Z ` w B b ] h +.D j e e j q u u g Y S I w p f r j 8 e L s > U t H Z p $.5 ",
"[.l $.d f b 9 p x r I D ; - d I g l L 5 1 n j v a j W n D r B 5 +.O C 0 j 9 d l u r l o w b e v w F I K Z o 0 G B l $ c X y $.% ",
"( L 9 e M o e p V G d W $.> 2 j k o I p o p o k v V 9 u t 0 d G 7 > p b a t j Z M g P $.2 z 8 G ;.b = U '.l W 0 Z m f K I J 9 ..",
"% d r F L h 0 v Y ( r $.P s ) r 9 0 t 8 D $.P 0 9 k k W D Q v ` h D j q v o 9 c z S M B p s J - #.' W $.J n t 4 m p ` F I n m ! ",
"# C 5 c k ` :.H , Y s D l r w F Z F Q Y +.s o W e w e p p P j r [ a R ( q F a q k Z q Q X a X o I C u S E r p q Q b Z I u o s % ",
"= W L z r r r z C 4 p Q 0 c O 0 X k W I J v m a 8 +.` p 9 Q a Z . F -.Y Y d l F j p h B n M J C 9 e r v W v Z e n b Q a I d 0 | ",
"^ a B X V V r r 9 v ].;.p q a W o D 9 l I V a I j L c 9 I Z e k Q P 0 c B s A d a w 0 Z Z l V 9 k z t X S B 8 X z J s b k v w ..",
"{ c r e L 9 i z g s L W B a V o a r v a w q p 9 w v C t w k y b B 0 W 0 n I Q n L n C r I k W l r e - I ] J 9 l Z r e ..{ J o : ",
"~ K 2 R ;.U - $ ( T } K 2 = > ] . 4 . @ : % ' ^ ! # ; ) ; > [ > T < $ 2 > ) = [ * # 8.x + U @ ;...~.= + T T K A { ~.~ : { ^ ! )."};
